<?xml version="1.0" encoding="utf-8"?>
<!-- Generator: Adobe Illustrator 27.5.0, SVG Export Plug-In . SVG Version: 6.00 Build 0)  -->
<svg version="1.1"
	 id="svg2" xmlns:sodipodi="http://sodipodi.sourceforge.net/DTD/sodipodi-0.dtd" xmlns:svg="http://www.w3.org/2000/svg" xmlns:rdf="http://www.w3.org/1999/02/22-rdf-syntax-ns#" xmlns:cc="http://creativecommons.org/ns#" xmlns:dc="http://purl.org/dc/elements/1.1/" xmlns:inkscape="http://www.inkscape.org/namespaces/inkscape" inkscape:version="0.48.2 r9819" sodipodi:docname="Airdrop - Copie.svg"
	 xmlns="http://www.w3.org/2000/svg" xmlns:xlink="http://www.w3.org/1999/xlink" x="0px" y="0px" viewBox="0 0 602 602"
	 style="enable-background:new 0 0 602 602;" xml:space="preserve">
<style type="text/css">
	.st0{clip-path:url(#SVGID_00000155832213609595996740000002268119472747618717_);}
	.st1{fill:#0043FF;}
	.st2{fill:#F72F6D;}
	.st3{fill:#00FF30;}
	.st4{fill:#F46431;}
	.st5{fill:none;}
	.st6{fill:url(#SVGID_00000044171179640440761150000010403843118268674188_);}
</style>
<sodipodi:namedview  bordercolor="#666666" borderopacity="1.0" id="base" inkscape:current-layer="layer1" inkscape:cx="-298.61733" inkscape:cy="36.893627" inkscape:document-units="px" inkscape:pageopacity="0.0" inkscape:pageshadow="2" inkscape:window-height="706" inkscape:window-maximized="1" inkscape:window-width="1366" inkscape:window-x="-8" inkscape:window-y="-8" inkscape:zoom="0.37410882" pagecolor="#ffffff" showgrid="false">
	</sodipodi:namedview>
<g>
	<defs>
		<path id="SVGID_1_" d="M301,5C137.5,5,5,137.5,5,301s132.5,296,296,296s296-132.5,296-296S464.5,5,301,5z M301,580.7
			C146.5,580.7,21.3,455.5,21.3,301S146.5,21.3,301,21.3S580.7,146.5,580.7,301S455.5,580.7,301,580.7z"/>
	</defs>
	<clipPath id="SVGID_00000144322621584849172410000013211694073505822090_">
		<use xlink:href="#SVGID_1_"  style="overflow:visible;"/>
	</clipPath>
	<g style="clip-path:url(#SVGID_00000144322621584849172410000013211694073505822090_);">
		<g>
			<rect x="-7.8" y="-39" class="st1" width="617.7" height="3.2"/>
			<rect x="-7.8" y="-35.7" class="st2" width="617.7" height="3.2"/>
			<rect x="-7.8" y="-32.5" class="st3" width="617.7" height="3.2"/>
			<rect x="-7.8" y="-29.2" class="st4" width="617.7" height="3.2"/>
		</g>
		<g>
			<rect x="-7.8" y="-27.8" class="st1" width="617.7" height="3.2"/>
			<rect x="-7.8" y="-24.6" class="st2" width="617.7" height="3.2"/>
			<rect x="-7.8" y="-21.4" class="st3" width="617.7" height="3.2"/>
			<rect x="-7.8" y="-18.1" class="st4" width="617.7" height="3.2"/>
		</g>
		<g>
			<rect x="-7.8" y="-16.7" class="st1" width="617.7" height="3.2"/>
			<rect x="-7.8" y="-13.5" class="st2" width="617.7" height="3.2"/>
			<rect x="-7.8" y="-10.2" class="st3" width="617.7" height="3.2"/>
			<rect x="-7.8" y="-7" class="st4" width="617.7" height="3.2"/>
		</g>
		<g>
			<rect x="-7.8" y="-5.6" class="st1" width="617.7" height="3.2"/>
			<rect x="-7.8" y="-2.3" class="st2" width="617.7" height="3.2"/>
			<rect x="-7.8" y="0.9" class="st3" width="617.7" height="3.2"/>
			<rect x="-7.8" y="4.1" class="st4" width="617.7" height="3.2"/>
		</g>
		<g>
			<rect x="-7.8" y="5.5" class="st1" width="617.7" height="3.2"/>
			<rect x="-7.8" y="8.8" class="st2" width="617.7" height="3.2"/>
			<rect x="-7.8" y="12" class="st3" width="617.7" height="3.2"/>
			<rect x="-7.8" y="15.3" class="st4" width="617.7" height="3.2"/>
		</g>
		<g>
			<rect x="-7.8" y="16.7" class="st1" width="617.7" height="3.2"/>
			<rect x="-7.8" y="19.9" class="st2" width="617.7" height="3.2"/>
			<rect x="-7.8" y="23.2" class="st3" width="617.7" height="3.2"/>
			<rect x="-7.8" y="26.4" class="st4" width="617.7" height="3.2"/>
		</g>
		<g>
			<rect x="-7.8" y="27.8" class="st1" width="617.7" height="3.2"/>
			<rect x="-7.8" y="31" class="st2" width="617.7" height="3.2"/>
			<rect x="-7.8" y="34.3" class="st3" width="617.7" height="3.2"/>
			<rect x="-7.8" y="37.5" class="st4" width="617.7" height="3.2"/>
		</g>
		<g>
			<rect x="-7.8" y="38.9" class="st1" width="617.7" height="3.2"/>
			<rect x="-7.8" y="42.2" class="st2" width="617.7" height="3.2"/>
			<rect x="-7.8" y="45.4" class="st3" width="617.7" height="3.2"/>
			<rect x="-7.8" y="48.7" class="st4" width="617.7" height="3.2"/>
		</g>
		<g>
			<rect x="-7.8" y="50.1" class="st1" width="617.7" height="3.2"/>
			<rect x="-7.8" y="53.3" class="st2" width="617.7" height="3.2"/>
			<rect x="-7.8" y="56.6" class="st3" width="617.7" height="3.2"/>
			<rect x="-7.8" y="59.8" class="st4" width="617.7" height="3.2"/>
		</g>
		<g>
			<rect x="-7.8" y="61.2" class="st1" width="617.7" height="3.2"/>
			<rect x="-7.8" y="64.4" class="st2" width="617.7" height="3.2"/>
			<rect x="-7.8" y="67.7" class="st3" width="617.7" height="3.2"/>
			<rect x="-7.8" y="70.9" class="st4" width="617.7" height="3.2"/>
		</g>
		<g>
			<rect x="-7.8" y="72.3" class="st1" width="617.7" height="3.2"/>
			<rect x="-7.8" y="75.6" class="st2" width="617.7" height="3.2"/>
			<rect x="-7.8" y="78.8" class="st3" width="617.7" height="3.2"/>
			<rect x="-7.8" y="82.1" class="st4" width="617.7" height="3.2"/>
		</g>
		<g>
			<rect x="-7.8" y="83.5" class="st1" width="617.7" height="3.2"/>
			<rect x="-7.8" y="86.7" class="st2" width="617.7" height="3.2"/>
			<rect x="-7.8" y="89.9" class="st3" width="617.7" height="3.2"/>
			<rect x="-7.8" y="93.2" class="st4" width="617.7" height="3.2"/>
		</g>
		<g>
			<rect x="-7.8" y="94.6" class="st1" width="617.7" height="3.2"/>
			<rect x="-7.8" y="97.8" class="st2" width="617.7" height="3.2"/>
			<rect x="-7.8" y="101.1" class="st3" width="617.7" height="3.2"/>
			<rect x="-7.8" y="104.3" class="st4" width="617.7" height="3.2"/>
		</g>
		<g>
			<rect x="-7.8" y="105.7" class="st1" width="617.7" height="3.2"/>
			<rect x="-7.8" y="109" class="st2" width="617.7" height="3.2"/>
			<rect x="-7.8" y="112.2" class="st3" width="617.7" height="3.2"/>
			<rect x="-7.8" y="115.4" class="st4" width="617.7" height="3.2"/>
		</g>
		<g>
			<rect x="-7.8" y="116.8" class="st1" width="617.7" height="3.2"/>
			<rect x="-7.8" y="120.1" class="st2" width="617.7" height="3.2"/>
			<rect x="-7.8" y="123.3" class="st3" width="617.7" height="3.2"/>
			<rect x="-7.8" y="126.6" class="st4" width="617.7" height="3.2"/>
		</g>
		<g>
			<rect x="-7.8" y="128" class="st1" width="617.7" height="3.2"/>
			<rect x="-7.8" y="131.2" class="st2" width="617.7" height="3.2"/>
			<rect x="-7.8" y="134.5" class="st3" width="617.7" height="3.2"/>
			<rect x="-7.8" y="137.7" class="st4" width="617.7" height="3.2"/>
		</g>
		<g>
			<rect x="-7.8" y="139.1" class="st1" width="617.7" height="3.2"/>
			<rect x="-7.8" y="142.3" class="st2" width="617.7" height="3.2"/>
			<rect x="-7.8" y="145.6" class="st3" width="617.7" height="3.2"/>
			<rect x="-7.8" y="148.8" class="st4" width="617.7" height="3.2"/>
		</g>
		<g>
			<rect x="-7.8" y="150.2" class="st1" width="617.7" height="3.2"/>
			<rect x="-7.8" y="153.5" class="st2" width="617.7" height="3.2"/>
			<rect x="-7.8" y="156.7" class="st3" width="617.7" height="3.2"/>
			<rect x="-7.8" y="160" class="st4" width="617.7" height="3.2"/>
		</g>
		<g>
			<rect x="-7.8" y="161.4" class="st1" width="617.7" height="3.2"/>
			<rect x="-7.8" y="164.6" class="st2" width="617.7" height="3.2"/>
			<rect x="-7.8" y="167.8" class="st3" width="617.7" height="3.2"/>
			<rect x="-7.8" y="171.1" class="st4" width="617.7" height="3.2"/>
		</g>
		<g>
			<rect x="-7.8" y="172.5" class="st1" width="617.7" height="3.2"/>
			<rect x="-7.8" y="175.7" class="st2" width="617.7" height="3.2"/>
			<rect x="-7.8" y="179" class="st3" width="617.7" height="3.2"/>
			<rect x="-7.8" y="182.2" class="st4" width="617.7" height="3.2"/>
		</g>
		<g>
			<rect x="-7.8" y="183.6" class="st1" width="617.7" height="3.2"/>
			<rect x="-7.8" y="186.9" class="st2" width="617.7" height="3.2"/>
			<rect x="-7.8" y="190.1" class="st3" width="617.7" height="3.2"/>
			<rect x="-7.8" y="193.3" class="st4" width="617.7" height="3.2"/>
		</g>
		<g>
			<rect x="-7.8" y="194.7" class="st1" width="617.7" height="3.2"/>
			<rect x="-7.8" y="198" class="st2" width="617.7" height="3.2"/>
			<rect x="-7.8" y="201.2" class="st3" width="617.7" height="3.2"/>
			<rect x="-7.8" y="204.5" class="st4" width="617.7" height="3.2"/>
		</g>
		<g>
			<rect x="-7.8" y="205.9" class="st1" width="617.7" height="3.2"/>
			<rect x="-7.8" y="209.1" class="st2" width="617.7" height="3.2"/>
			<rect x="-7.8" y="212.4" class="st3" width="617.7" height="3.2"/>
			<rect x="-7.8" y="215.6" class="st4" width="617.7" height="3.2"/>
		</g>
		<g>
			<rect x="-7.8" y="217" class="st1" width="617.7" height="3.2"/>
			<rect x="-7.8" y="220.3" class="st2" width="617.7" height="3.2"/>
			<rect x="-7.8" y="223.5" class="st3" width="617.7" height="3.2"/>
			<rect x="-7.8" y="226.7" class="st4" width="617.7" height="3.2"/>
		</g>
		<g>
			<rect x="-7.8" y="228.1" class="st1" width="617.7" height="3.2"/>
			<rect x="-7.8" y="231.4" class="st2" width="617.7" height="3.2"/>
			<rect x="-7.8" y="234.6" class="st3" width="617.7" height="3.2"/>
			<rect x="-7.8" y="237.9" class="st4" width="617.7" height="3.2"/>
		</g>
		<g>
			<rect x="-7.8" y="239.3" class="st1" width="617.7" height="3.2"/>
			<rect x="-7.8" y="242.5" class="st2" width="617.7" height="3.2"/>
			<rect x="-7.8" y="245.8" class="st3" width="617.7" height="3.2"/>
			<rect x="-7.8" y="249" class="st4" width="617.7" height="3.2"/>
		</g>
		<g>
			<rect x="-7.8" y="250.4" class="st1" width="617.7" height="3.2"/>
			<rect x="-7.8" y="253.6" class="st2" width="617.7" height="3.2"/>
			<rect x="-7.8" y="256.9" class="st3" width="617.7" height="3.2"/>
			<rect x="-7.8" y="260.1" class="st4" width="617.7" height="3.2"/>
		</g>
		<g>
			<rect x="-7.8" y="261.5" class="st1" width="617.7" height="3.2"/>
			<rect x="-7.8" y="264.8" class="st2" width="617.7" height="3.2"/>
			<rect x="-7.8" y="268" class="st3" width="617.7" height="3.2"/>
			<rect x="-7.8" y="271.3" class="st4" width="617.7" height="3.2"/>
		</g>
		<g>
			<rect x="-7.8" y="272.7" class="st1" width="617.7" height="3.2"/>
			<rect x="-7.8" y="275.9" class="st2" width="617.7" height="3.2"/>
			<rect x="-7.8" y="279.1" class="st3" width="617.7" height="3.2"/>
			<rect x="-7.8" y="282.4" class="st4" width="617.7" height="3.2"/>
		</g>
		<g>
			<rect x="-7.8" y="283.8" class="st1" width="617.7" height="3.2"/>
			<rect x="-7.8" y="287" class="st2" width="617.7" height="3.2"/>
			<rect x="-7.8" y="290.3" class="st3" width="617.7" height="3.2"/>
			<rect x="-7.8" y="293.5" class="st4" width="617.7" height="3.2"/>
		</g>
		<g>
			<rect x="-7.8" y="294.9" class="st1" width="617.7" height="3.2"/>
			<rect x="-7.8" y="298.2" class="st2" width="617.7" height="3.2"/>
			<rect x="-7.8" y="301.4" class="st3" width="617.7" height="3.2"/>
			<rect x="-7.8" y="304.6" class="st4" width="617.7" height="3.2"/>
		</g>
		<g>
			<rect x="-7.8" y="306" class="st1" width="617.7" height="3.2"/>
			<rect x="-7.8" y="309.3" class="st2" width="617.7" height="3.2"/>
			<rect x="-7.8" y="312.5" class="st3" width="617.7" height="3.2"/>
			<rect x="-7.8" y="315.8" class="st4" width="617.7" height="3.2"/>
		</g>
		<g>
			<rect x="-7.8" y="317.2" class="st1" width="617.7" height="3.2"/>
			<rect x="-7.8" y="320.4" class="st2" width="617.7" height="3.2"/>
			<rect x="-7.8" y="323.7" class="st3" width="617.7" height="3.2"/>
			<rect x="-7.8" y="326.9" class="st4" width="617.7" height="3.2"/>
		</g>
		<g>
			<rect x="-7.8" y="328.3" class="st1" width="617.7" height="3.2"/>
			<rect x="-7.8" y="331.5" class="st2" width="617.7" height="3.2"/>
			<rect x="-7.8" y="334.8" class="st3" width="617.7" height="3.2"/>
			<rect x="-7.8" y="338" class="st4" width="617.7" height="3.2"/>
		</g>
		<g>
			<rect x="-7.8" y="339.4" class="st1" width="617.7" height="3.2"/>
			<rect x="-7.8" y="342.7" class="st2" width="617.7" height="3.2"/>
			<rect x="-7.8" y="345.9" class="st3" width="617.7" height="3.2"/>
			<rect x="-7.8" y="349.2" class="st4" width="617.7" height="3.2"/>
		</g>
		<g>
			<rect x="-7.8" y="350.6" class="st1" width="617.7" height="3.2"/>
			<rect x="-7.8" y="353.8" class="st2" width="617.7" height="3.2"/>
			<rect x="-7.8" y="357.1" class="st3" width="617.7" height="3.2"/>
			<rect x="-7.8" y="360.3" class="st4" width="617.7" height="3.2"/>
		</g>
		<g>
			<rect x="-7.8" y="361.7" class="st1" width="617.7" height="3.2"/>
			<rect x="-7.8" y="364.9" class="st2" width="617.7" height="3.2"/>
			<rect x="-7.8" y="368.2" class="st3" width="617.7" height="3.2"/>
			<rect x="-7.8" y="371.4" class="st4" width="617.7" height="3.2"/>
		</g>
		<g>
			<rect x="-7.8" y="372.8" class="st1" width="617.7" height="3.2"/>
			<rect x="-7.8" y="376.1" class="st2" width="617.7" height="3.2"/>
			<rect x="-7.8" y="379.3" class="st3" width="617.7" height="3.2"/>
			<rect x="-7.8" y="382.6" class="st4" width="617.7" height="3.2"/>
		</g>
		<g>
			<rect x="-7.8" y="384" class="st1" width="617.7" height="3.2"/>
			<rect x="-7.8" y="387.2" class="st2" width="617.7" height="3.2"/>
			<rect x="-7.8" y="390.4" class="st3" width="617.7" height="3.2"/>
			<rect x="-7.8" y="393.7" class="st4" width="617.7" height="3.2"/>
		</g>
		<g>
			<rect x="-7.8" y="395.1" class="st1" width="617.7" height="3.2"/>
			<rect x="-7.8" y="398.3" class="st2" width="617.7" height="3.2"/>
			<rect x="-7.8" y="401.6" class="st3" width="617.7" height="3.2"/>
			<rect x="-7.8" y="404.8" class="st4" width="617.7" height="3.2"/>
		</g>
		<g>
			<rect x="-7.8" y="406.2" class="st1" width="617.7" height="3.2"/>
			<rect x="-7.8" y="409.5" class="st2" width="617.7" height="3.2"/>
			<rect x="-7.8" y="412.7" class="st3" width="617.7" height="3.2"/>
			<rect x="-7.8" y="415.9" class="st4" width="617.7" height="3.2"/>
		</g>
		<g>
			<rect x="-7.8" y="417.3" class="st1" width="617.7" height="3.2"/>
			<rect x="-7.8" y="420.6" class="st2" width="617.7" height="3.2"/>
			<rect x="-7.8" y="423.8" class="st3" width="617.7" height="3.2"/>
			<rect x="-7.8" y="427.1" class="st4" width="617.7" height="3.2"/>
		</g>
		<g>
			<rect x="-7.8" y="428.5" class="st1" width="617.7" height="3.2"/>
			<rect x="-7.8" y="431.7" class="st2" width="617.7" height="3.2"/>
			<rect x="-7.8" y="435" class="st3" width="617.7" height="3.2"/>
			<rect x="-7.8" y="438.2" class="st4" width="617.7" height="3.2"/>
		</g>
		<g>
			<rect x="-7.8" y="439.6" class="st1" width="617.7" height="3.2"/>
			<rect x="-7.8" y="442.8" class="st2" width="617.7" height="3.2"/>
			<rect x="-7.8" y="446.1" class="st3" width="617.7" height="3.2"/>
			<rect x="-7.8" y="449.3" class="st4" width="617.7" height="3.2"/>
		</g>
		<g>
			<rect x="-7.8" y="450.7" class="st1" width="617.7" height="3.2"/>
			<rect x="-7.8" y="454" class="st2" width="617.7" height="3.2"/>
			<rect x="-7.8" y="457.2" class="st3" width="617.7" height="3.2"/>
			<rect x="-7.8" y="460.5" class="st4" width="617.7" height="3.2"/>
		</g>
		<g>
			<rect x="-7.8" y="461.9" class="st1" width="617.7" height="3.2"/>
			<rect x="-7.8" y="465.1" class="st2" width="617.7" height="3.2"/>
			<rect x="-7.8" y="468.3" class="st3" width="617.7" height="3.2"/>
			<rect x="-7.8" y="471.6" class="st4" width="617.7" height="3.2"/>
		</g>
		<g>
			<rect x="-7.8" y="473" class="st1" width="617.7" height="3.2"/>
			<rect x="-7.8" y="476.2" class="st2" width="617.7" height="3.2"/>
			<rect x="-7.8" y="479.5" class="st3" width="617.7" height="3.2"/>
			<rect x="-7.8" y="482.7" class="st4" width="617.7" height="3.2"/>
		</g>
		<g>
			<rect x="-7.8" y="484.1" class="st1" width="617.7" height="3.2"/>
			<rect x="-7.8" y="487.4" class="st2" width="617.7" height="3.2"/>
			<rect x="-7.8" y="490.6" class="st3" width="617.7" height="3.2"/>
			<rect x="-7.8" y="493.8" class="st4" width="617.7" height="3.2"/>
		</g>
		<g>
			<rect x="-7.8" y="495.2" class="st1" width="617.7" height="3.2"/>
			<rect x="-7.8" y="498.5" class="st2" width="617.7" height="3.2"/>
			<rect x="-7.8" y="501.7" class="st3" width="617.7" height="3.2"/>
			<rect x="-7.8" y="505" class="st4" width="617.7" height="3.2"/>
		</g>
		<g>
			<rect x="-7.8" y="506.4" class="st1" width="617.7" height="3.2"/>
			<rect x="-7.8" y="509.6" class="st2" width="617.7" height="3.2"/>
			<rect x="-7.8" y="512.9" class="st3" width="617.7" height="3.2"/>
			<rect x="-7.8" y="516.1" class="st4" width="617.7" height="3.2"/>
		</g>
		<g>
			<rect x="-7.8" y="517.5" class="st1" width="617.7" height="3.2"/>
			<rect x="-7.8" y="520.8" class="st2" width="617.7" height="3.2"/>
			<rect x="-7.8" y="524" class="st3" width="617.7" height="3.2"/>
			<rect x="-7.8" y="527.2" class="st4" width="617.7" height="3.2"/>
		</g>
		<g>
			<rect x="-7.8" y="528.6" class="st1" width="617.7" height="3.2"/>
			<rect x="-7.8" y="531.9" class="st2" width="617.7" height="3.2"/>
			<rect x="-7.8" y="535.1" class="st3" width="617.7" height="3.2"/>
			<rect x="-7.8" y="538.4" class="st4" width="617.7" height="3.2"/>
		</g>
		<g>
			<rect x="-7.8" y="539.8" class="st1" width="617.7" height="3.2"/>
			<rect x="-7.8" y="543" class="st2" width="617.7" height="3.2"/>
			<rect x="-7.8" y="546.3" class="st3" width="617.7" height="3.2"/>
			<rect x="-7.8" y="549.5" class="st4" width="617.7" height="3.2"/>
		</g>
		<g>
			<rect x="-7.8" y="550.9" class="st1" width="617.7" height="3.2"/>
			<rect x="-7.8" y="554.1" class="st2" width="617.7" height="3.2"/>
			<rect x="-7.8" y="557.4" class="st3" width="617.7" height="3.2"/>
			<rect x="-7.8" y="560.6" class="st4" width="617.7" height="3.2"/>
		</g>
		<g>
			<rect x="-7.8" y="562" class="st1" width="617.7" height="3.2"/>
			<rect x="-7.8" y="565.3" class="st2" width="617.7" height="3.2"/>
			<rect x="-7.8" y="568.5" class="st3" width="617.7" height="3.2"/>
			<rect x="-7.8" y="571.8" class="st4" width="617.7" height="3.2"/>
		</g>
		<g>
			<rect x="-7.8" y="573.2" class="st1" width="617.7" height="3.2"/>
			<rect x="-7.8" y="576.4" class="st2" width="617.7" height="3.2"/>
			<rect x="-7.8" y="579.6" class="st3" width="617.7" height="3.2"/>
			<rect x="-7.8" y="582.9" class="st4" width="617.7" height="3.2"/>
		</g>
		<g>
			<rect x="-7.8" y="584.3" class="st1" width="617.7" height="3.2"/>
			<rect x="-7.8" y="587.5" class="st2" width="617.7" height="3.2"/>
			<rect x="-7.8" y="590.8" class="st3" width="617.7" height="3.2"/>
			<rect x="-7.8" y="594" class="st4" width="617.7" height="3.2"/>
		</g>
		<g>
			<rect x="-7.8" y="595.4" class="st1" width="617.7" height="3.2"/>
			<rect x="-7.8" y="598.7" class="st2" width="617.7" height="3.2"/>
			<rect x="-7.8" y="601.9" class="st3" width="617.7" height="3.2"/>
			<rect x="-7.8" y="605.1" class="st4" width="617.7" height="3.2"/>
		</g>
		<g>
			<rect x="-7.8" y="606.5" class="st1" width="617.7" height="3.2"/>
			<rect x="-7.8" y="609.8" class="st2" width="617.7" height="3.2"/>
			<rect x="-7.8" y="613" class="st3" width="617.7" height="3.2"/>
			<rect x="-7.8" y="616.3" class="st4" width="617.7" height="3.2"/>
		</g>
		<g>
			<rect x="-7.8" y="617.7" class="st1" width="617.7" height="3.2"/>
			<rect x="-7.8" y="620.9" class="st2" width="617.7" height="3.2"/>
			<rect x="-7.8" y="624.2" class="st3" width="617.7" height="3.2"/>
			<rect x="-7.8" y="627.4" class="st4" width="617.7" height="3.2"/>
		</g>
		<g>
			<rect x="-7.8" y="628.8" class="st1" width="617.7" height="3.2"/>
			<rect x="-7.8" y="632" class="st2" width="617.7" height="3.2"/>
			<rect x="-7.8" y="635.3" class="st3" width="617.7" height="3.2"/>
			<rect x="-7.8" y="638.5" class="st4" width="617.7" height="3.2"/>
		</g>
		<g>
			<rect x="-7.8" y="639.9" class="st1" width="617.7" height="3.2"/>
			<rect x="-7.8" y="643.2" class="st2" width="617.7" height="3.2"/>
			<rect x="-7.8" y="646.4" class="st3" width="617.7" height="3.2"/>
			<rect x="-7.8" y="649.7" class="st4" width="617.7" height="3.2"/>
		</g>
		<g>
			<rect x="-7.8" y="651.1" class="st1" width="617.7" height="3.2"/>
			<rect x="-7.8" y="654.3" class="st2" width="617.7" height="3.2"/>
			<rect x="-7.8" y="657.6" class="st3" width="617.7" height="3.2"/>
			<rect x="-7.8" y="660.8" class="st4" width="617.7" height="3.2"/>
		</g>
		<g>
			<rect x="-7.8" y="662.2" class="st1" width="617.7" height="3.2"/>
			<rect x="-7.8" y="665.4" class="st2" width="617.7" height="3.2"/>
			<rect x="-7.8" y="668.7" class="st3" width="617.7" height="3.2"/>
			<rect x="-7.8" y="671.9" class="st4" width="617.7" height="3.2"/>
		</g>
		<g>
			<rect x="-7.8" y="673.3" class="st1" width="617.7" height="3.2"/>
			<rect x="-7.8" y="676.6" class="st2" width="617.7" height="3.2"/>
			<rect x="-7.8" y="679.8" class="st3" width="617.7" height="3.2"/>
			<rect x="-7.8" y="683.1" class="st4" width="617.7" height="3.2"/>
		</g>
	</g>
</g>
<path class="st5" d="M301,5C137.5,5,5,137.5,5,301s132.5,296,296,296s296-132.5,296-296S464.5,5,301,5z M301,580.7
	C146.5,580.7,21.3,455.5,21.3,301S146.5,21.3,301,21.3S580.7,146.5,580.7,301S455.5,580.7,301,580.7z"/>
<linearGradient id="SVGID_00000039813510245464673260000015931080957211388303_" gradientUnits="userSpaceOnUse" x1="5" y1="301" x2="597" y2="301">
	<stop  offset="5.072649e-04" style="stop-color:#70EFFF;stop-opacity:0.1"/>
	<stop  offset="1" style="stop-color:#5770FF"/>
</linearGradient>
<path style="fill:url(#SVGID_00000039813510245464673260000015931080957211388303_);" d="M301,5C137.5,5,5,137.5,5,301
	s132.5,296,296,296s296-132.5,296-296S464.5,5,301,5z M301,580.7C146.5,580.7,21.3,455.5,21.3,301S146.5,21.3,301,21.3
	S580.7,146.5,580.7,301S455.5,580.7,301,580.7z"/>
</svg>
