<?xml version="1.0" encoding="utf-8"?>
<!-- Generator: Adobe Illustrator 27.5.0, SVG Export Plug-In . SVG Version: 6.00 Build 0)  -->
<svg version="1.1"
	 id="svg2" xmlns:sodipodi="http://sodipodi.sourceforge.net/DTD/sodipodi-0.dtd" xmlns:svg="http://www.w3.org/2000/svg" xmlns:rdf="http://www.w3.org/1999/02/22-rdf-syntax-ns#" xmlns:cc="http://creativecommons.org/ns#" xmlns:dc="http://purl.org/dc/elements/1.1/" xmlns:inkscape="http://www.inkscape.org/namespaces/inkscape" inkscape:version="0.48.2 r9819" sodipodi:docname="Airdrop - Copie.svg"
	 xmlns="http://www.w3.org/2000/svg" xmlns:xlink="http://www.w3.org/1999/xlink" x="0px" y="0px" viewBox="0 0 602 602"
	 style="enable-background:new 0 0 602 602;" xml:space="preserve">
<style type="text/css">
	.st0{clip-path:url(#SVGID_00000160162871330403312360000003219940917021336457_);}
	.st1{fill:#0043FF;}
	.st2{fill:#F72F6D;}
	.st3{fill:#00FF30;}
	.st4{fill:#F46431;}
</style>
<sodipodi:namedview  bordercolor="#666666" borderopacity="1.0" id="base" inkscape:current-layer="layer1" inkscape:cx="-298.61733" inkscape:cy="36.893627" inkscape:document-units="px" inkscape:pageopacity="0.0" inkscape:pageshadow="2" inkscape:window-height="706" inkscape:window-maximized="1" inkscape:window-width="1366" inkscape:window-x="-8" inkscape:window-y="-8" inkscape:zoom="0.37410882" pagecolor="#ffffff" showgrid="false">
	</sodipodi:namedview>
<g>
	<defs>
		<path id="SVGID_1_" d="M301,5C137.5,5,5,137.5,5,301s132.5,296,296,296s296-132.5,296-296S464.5,5,301,5z M301,580.7
			C146.5,580.7,21.3,455.5,21.3,301S146.5,21.3,301,21.3S580.7,146.5,580.7,301S455.5,580.7,301,580.7z"/>
	</defs>
	<clipPath id="SVGID_00000111905987701424802980000013364299469317523617_">
		<use xlink:href="#SVGID_1_"  style="overflow:visible;"/>
	</clipPath>
	<g style="clip-path:url(#SVGID_00000111905987701424802980000013364299469317523617_);">
		<g>
			<rect x="-7.8" y="-16.6" class="st1" width="617.7" height="2.9"/>
			<rect x="-7.8" y="-13.7" class="st2" width="617.7" height="2.9"/>
			<rect x="-7.8" y="-10.8" class="st3" width="617.7" height="2.9"/>
			<rect x="-7.8" y="-7.9" class="st4" width="617.7" height="2.9"/>
		</g>
		<g>
			<rect x="-7.8" y="-9.6" class="st1" width="617.7" height="2.9"/>
			<rect x="-7.8" y="-6.7" class="st2" width="617.7" height="2.9"/>
			<rect x="-7.8" y="-3.8" class="st3" width="617.7" height="2.9"/>
			<rect x="-7.8" y="-0.9" class="st4" width="617.7" height="2.9"/>
		</g>
		<g>
			<rect x="-7.8" y="-2.6" class="st1" width="617.7" height="2.9"/>
			<rect x="-7.8" y="0.3" class="st2" width="617.7" height="2.9"/>
			<rect x="-7.8" y="3.2" class="st3" width="617.7" height="2.9"/>
			<rect x="-7.8" y="6.1" class="st4" width="617.7" height="2.9"/>
		</g>
		<g>
			<rect x="-7.8" y="4.4" class="st1" width="617.7" height="2.9"/>
			<rect x="-7.8" y="7.3" class="st2" width="617.7" height="2.9"/>
			<rect x="-7.8" y="10.2" class="st3" width="617.7" height="2.9"/>
			<rect x="-7.8" y="13.1" class="st4" width="617.7" height="2.9"/>
		</g>
		<g>
			<rect x="-7.8" y="11.4" class="st1" width="617.7" height="2.9"/>
			<rect x="-7.8" y="14.3" class="st2" width="617.7" height="2.9"/>
			<rect x="-7.8" y="17.2" class="st3" width="617.7" height="2.9"/>
			<rect x="-7.8" y="20.1" class="st4" width="617.7" height="2.9"/>
		</g>
		<g>
			<rect x="-7.8" y="18.4" class="st1" width="617.7" height="2.9"/>
			<rect x="-7.8" y="21.3" class="st2" width="617.7" height="2.9"/>
			<rect x="-7.8" y="24.2" class="st3" width="617.7" height="2.9"/>
			<rect x="-7.8" y="27.1" class="st4" width="617.7" height="2.9"/>
		</g>
		<g>
			<rect x="-7.8" y="25.4" class="st1" width="617.7" height="2.9"/>
			<rect x="-7.8" y="28.3" class="st2" width="617.7" height="2.9"/>
			<rect x="-7.8" y="31.2" class="st3" width="617.7" height="2.9"/>
			<rect x="-7.8" y="34.1" class="st4" width="617.7" height="2.9"/>
		</g>
		<g>
			<rect x="-7.8" y="32.4" class="st1" width="617.7" height="2.9"/>
			<rect x="-7.8" y="35.3" class="st2" width="617.7" height="2.9"/>
			<rect x="-7.8" y="38.2" class="st3" width="617.7" height="2.9"/>
			<rect x="-7.8" y="41.1" class="st4" width="617.7" height="2.9"/>
		</g>
		<g>
			<rect x="-7.8" y="39.4" class="st1" width="617.7" height="2.9"/>
			<rect x="-7.8" y="42.3" class="st2" width="617.7" height="2.9"/>
			<rect x="-7.8" y="45.2" class="st3" width="617.7" height="2.9"/>
			<rect x="-7.8" y="48.1" class="st4" width="617.7" height="2.9"/>
		</g>
		<g>
			<rect x="-7.8" y="46.4" class="st1" width="617.7" height="2.9"/>
			<rect x="-7.8" y="49.3" class="st2" width="617.7" height="2.9"/>
			<rect x="-7.8" y="52.2" class="st3" width="617.7" height="2.9"/>
			<rect x="-7.8" y="55.1" class="st4" width="617.7" height="2.9"/>
		</g>
		<g>
			<rect x="-7.8" y="53.4" class="st1" width="617.7" height="2.9"/>
			<rect x="-7.8" y="56.3" class="st2" width="617.7" height="2.9"/>
			<rect x="-7.8" y="59.2" class="st3" width="617.7" height="2.9"/>
			<rect x="-7.8" y="62.1" class="st4" width="617.7" height="2.9"/>
		</g>
		<g>
			<rect x="-7.8" y="60.4" class="st1" width="617.7" height="2.9"/>
			<rect x="-7.8" y="63.3" class="st2" width="617.7" height="2.9"/>
			<rect x="-7.8" y="66.2" class="st3" width="617.7" height="2.9"/>
			<rect x="-7.8" y="69.1" class="st4" width="617.7" height="2.9"/>
		</g>
		<g>
			<rect x="-7.8" y="67.4" class="st1" width="617.7" height="2.9"/>
			<rect x="-7.8" y="70.3" class="st2" width="617.7" height="2.9"/>
			<rect x="-7.8" y="73.2" class="st3" width="617.7" height="2.9"/>
			<rect x="-7.8" y="76.1" class="st4" width="617.7" height="2.9"/>
		</g>
		<g>
			<rect x="-7.8" y="74.4" class="st1" width="617.7" height="2.9"/>
			<rect x="-7.8" y="77.3" class="st2" width="617.7" height="2.9"/>
			<rect x="-7.8" y="80.2" class="st3" width="617.7" height="2.9"/>
			<rect x="-7.8" y="83.1" class="st4" width="617.7" height="2.9"/>
		</g>
		<g>
			<rect x="-7.8" y="81.4" class="st1" width="617.7" height="2.9"/>
			<rect x="-7.8" y="84.3" class="st2" width="617.7" height="2.9"/>
			<rect x="-7.8" y="87.2" class="st3" width="617.7" height="2.9"/>
			<rect x="-7.8" y="90.1" class="st4" width="617.7" height="2.9"/>
		</g>
		<g>
			<rect x="-7.8" y="88.4" class="st1" width="617.7" height="2.9"/>
			<rect x="-7.8" y="91.3" class="st2" width="617.7" height="2.9"/>
			<rect x="-7.8" y="94.2" class="st3" width="617.7" height="2.9"/>
			<rect x="-7.8" y="97.1" class="st4" width="617.7" height="2.9"/>
		</g>
		<g>
			<rect x="-7.8" y="95.4" class="st1" width="617.7" height="2.9"/>
			<rect x="-7.8" y="98.3" class="st2" width="617.7" height="2.9"/>
			<rect x="-7.8" y="101.2" class="st3" width="617.7" height="2.9"/>
			<rect x="-7.8" y="104.1" class="st4" width="617.7" height="2.9"/>
		</g>
		<g>
			<rect x="-7.8" y="102.4" class="st1" width="617.7" height="2.9"/>
			<rect x="-7.8" y="105.3" class="st2" width="617.7" height="2.9"/>
			<rect x="-7.8" y="108.2" class="st3" width="617.7" height="2.9"/>
			<rect x="-7.8" y="111.1" class="st4" width="617.7" height="2.9"/>
		</g>
		<g>
			<rect x="-7.8" y="109.4" class="st1" width="617.7" height="2.9"/>
			<rect x="-7.8" y="112.3" class="st2" width="617.7" height="2.9"/>
			<rect x="-7.8" y="115.2" class="st3" width="617.7" height="2.9"/>
			<rect x="-7.8" y="118.1" class="st4" width="617.7" height="2.9"/>
		</g>
		<g>
			<rect x="-7.8" y="116.4" class="st1" width="617.7" height="2.9"/>
			<rect x="-7.8" y="119.3" class="st2" width="617.7" height="2.9"/>
			<rect x="-7.8" y="122.2" class="st3" width="617.7" height="2.9"/>
			<rect x="-7.8" y="125.1" class="st4" width="617.7" height="2.9"/>
		</g>
		<g>
			<rect x="-7.8" y="123.4" class="st1" width="617.7" height="2.9"/>
			<rect x="-7.8" y="126.3" class="st2" width="617.7" height="2.9"/>
			<rect x="-7.8" y="129.2" class="st3" width="617.7" height="2.9"/>
			<rect x="-7.8" y="132.1" class="st4" width="617.7" height="2.9"/>
		</g>
		<g>
			<rect x="-7.8" y="130.4" class="st1" width="617.7" height="2.9"/>
			<rect x="-7.8" y="133.3" class="st2" width="617.7" height="2.9"/>
			<rect x="-7.8" y="136.2" class="st3" width="617.7" height="2.9"/>
			<rect x="-7.8" y="139.1" class="st4" width="617.7" height="2.9"/>
		</g>
		<g>
			<rect x="-7.8" y="137.4" class="st1" width="617.7" height="2.9"/>
			<rect x="-7.8" y="140.3" class="st2" width="617.7" height="2.9"/>
			<rect x="-7.8" y="143.2" class="st3" width="617.7" height="2.9"/>
			<rect x="-7.8" y="146.1" class="st4" width="617.7" height="2.9"/>
		</g>
		<g>
			<rect x="-7.8" y="144.4" class="st1" width="617.7" height="2.9"/>
			<rect x="-7.8" y="147.3" class="st2" width="617.7" height="2.9"/>
			<rect x="-7.8" y="150.2" class="st3" width="617.7" height="2.9"/>
			<rect x="-7.8" y="153.1" class="st4" width="617.7" height="2.9"/>
		</g>
		<g>
			<rect x="-7.8" y="151.4" class="st1" width="617.7" height="2.9"/>
			<rect x="-7.8" y="154.3" class="st2" width="617.7" height="2.9"/>
			<rect x="-7.8" y="157.2" class="st3" width="617.7" height="2.9"/>
			<rect x="-7.8" y="160.1" class="st4" width="617.7" height="2.9"/>
		</g>
		<g>
			<rect x="-7.8" y="158.4" class="st1" width="617.7" height="2.9"/>
			<rect x="-7.8" y="161.3" class="st2" width="617.7" height="2.9"/>
			<rect x="-7.8" y="164.2" class="st3" width="617.7" height="2.9"/>
			<rect x="-7.8" y="167.1" class="st4" width="617.7" height="2.9"/>
		</g>
		<g>
			<rect x="-7.8" y="165.4" class="st1" width="617.7" height="2.9"/>
			<rect x="-7.8" y="168.3" class="st2" width="617.7" height="2.9"/>
			<rect x="-7.8" y="171.2" class="st3" width="617.7" height="2.9"/>
			<rect x="-7.8" y="174.1" class="st4" width="617.7" height="2.9"/>
		</g>
		<g>
			<rect x="-7.8" y="172.4" class="st1" width="617.7" height="2.9"/>
			<rect x="-7.8" y="175.3" class="st2" width="617.7" height="2.9"/>
			<rect x="-7.8" y="178.2" class="st3" width="617.7" height="2.9"/>
			<rect x="-7.8" y="181.1" class="st4" width="617.7" height="2.9"/>
		</g>
		<g>
			<rect x="-7.8" y="179.4" class="st1" width="617.7" height="2.9"/>
			<rect x="-7.8" y="182.3" class="st2" width="617.7" height="2.9"/>
			<rect x="-7.8" y="185.2" class="st3" width="617.7" height="2.9"/>
			<rect x="-7.8" y="188.1" class="st4" width="617.7" height="2.9"/>
		</g>
		<g>
			<rect x="-7.8" y="186.4" class="st1" width="617.7" height="2.9"/>
			<rect x="-7.8" y="189.3" class="st2" width="617.7" height="2.9"/>
			<rect x="-7.8" y="192.2" class="st3" width="617.7" height="2.9"/>
			<rect x="-7.8" y="195.1" class="st4" width="617.7" height="2.9"/>
		</g>
		<g>
			<rect x="-7.8" y="193.4" class="st1" width="617.7" height="2.9"/>
			<rect x="-7.8" y="196.3" class="st2" width="617.7" height="2.9"/>
			<rect x="-7.8" y="199.2" class="st3" width="617.7" height="2.9"/>
			<rect x="-7.8" y="202.1" class="st4" width="617.7" height="2.9"/>
		</g>
		<g>
			<rect x="-7.8" y="200.4" class="st1" width="617.7" height="2.9"/>
			<rect x="-7.8" y="203.3" class="st2" width="617.7" height="2.9"/>
			<rect x="-7.8" y="206.2" class="st3" width="617.7" height="2.9"/>
			<rect x="-7.8" y="209.1" class="st4" width="617.7" height="2.9"/>
		</g>
		<g>
			<rect x="-7.8" y="207.4" class="st1" width="617.7" height="2.9"/>
			<rect x="-7.8" y="210.3" class="st2" width="617.7" height="2.9"/>
			<rect x="-7.8" y="213.2" class="st3" width="617.7" height="2.9"/>
			<rect x="-7.8" y="216.1" class="st4" width="617.7" height="2.9"/>
		</g>
		<g>
			<rect x="-7.8" y="214.4" class="st1" width="617.7" height="2.9"/>
			<rect x="-7.8" y="217.3" class="st2" width="617.7" height="2.9"/>
			<rect x="-7.8" y="220.2" class="st3" width="617.7" height="2.9"/>
			<rect x="-7.8" y="223.1" class="st4" width="617.7" height="2.9"/>
		</g>
		<g>
			<rect x="-7.8" y="221.4" class="st1" width="617.7" height="2.9"/>
			<rect x="-7.8" y="224.3" class="st2" width="617.7" height="2.9"/>
			<rect x="-7.8" y="227.2" class="st3" width="617.7" height="2.9"/>
			<rect x="-7.8" y="230.1" class="st4" width="617.7" height="2.9"/>
		</g>
		<g>
			<rect x="-7.8" y="228.4" class="st1" width="617.7" height="2.9"/>
			<rect x="-7.8" y="231.3" class="st2" width="617.7" height="2.9"/>
			<rect x="-7.8" y="234.2" class="st3" width="617.7" height="2.9"/>
			<rect x="-7.8" y="237.1" class="st4" width="617.7" height="2.9"/>
		</g>
		<g>
			<rect x="-7.8" y="235.4" class="st1" width="617.7" height="2.9"/>
			<rect x="-7.8" y="238.3" class="st2" width="617.7" height="2.9"/>
			<rect x="-7.8" y="241.2" class="st3" width="617.7" height="2.9"/>
			<rect x="-7.8" y="244.1" class="st4" width="617.7" height="2.9"/>
		</g>
		<g>
			<rect x="-7.8" y="242.4" class="st1" width="617.7" height="2.9"/>
			<rect x="-7.8" y="245.3" class="st2" width="617.7" height="2.9"/>
			<rect x="-7.8" y="248.2" class="st3" width="617.7" height="2.9"/>
			<rect x="-7.8" y="251.1" class="st4" width="617.7" height="2.9"/>
		</g>
		<g>
			<rect x="-7.8" y="249.4" class="st1" width="617.7" height="2.9"/>
			<rect x="-7.8" y="252.3" class="st2" width="617.7" height="2.9"/>
			<rect x="-7.8" y="255.2" class="st3" width="617.7" height="2.9"/>
			<rect x="-7.8" y="258.1" class="st4" width="617.7" height="2.9"/>
		</g>
		<g>
			<rect x="-7.8" y="256.4" class="st1" width="617.7" height="2.9"/>
			<rect x="-7.8" y="259.3" class="st2" width="617.7" height="2.9"/>
			<rect x="-7.8" y="262.2" class="st3" width="617.7" height="2.9"/>
			<rect x="-7.8" y="265.1" class="st4" width="617.7" height="2.9"/>
		</g>
		<g>
			<rect x="-7.8" y="263.4" class="st1" width="617.7" height="2.9"/>
			<rect x="-7.8" y="266.3" class="st2" width="617.7" height="2.9"/>
			<rect x="-7.8" y="269.2" class="st3" width="617.7" height="2.9"/>
			<rect x="-7.8" y="272.1" class="st4" width="617.7" height="2.9"/>
		</g>
		<g>
			<rect x="-7.8" y="270.4" class="st1" width="617.7" height="2.9"/>
			<rect x="-7.8" y="273.3" class="st2" width="617.7" height="2.9"/>
			<rect x="-7.8" y="276.2" class="st3" width="617.7" height="2.9"/>
			<rect x="-7.8" y="279.1" class="st4" width="617.7" height="2.9"/>
		</g>
		<g>
			<rect x="-7.8" y="277.4" class="st1" width="617.7" height="2.9"/>
			<rect x="-7.8" y="280.3" class="st2" width="617.7" height="2.9"/>
			<rect x="-7.8" y="283.2" class="st3" width="617.7" height="2.9"/>
			<rect x="-7.8" y="286.1" class="st4" width="617.7" height="2.9"/>
		</g>
		<g>
			<rect x="-7.8" y="284.4" class="st1" width="617.7" height="2.9"/>
			<rect x="-7.8" y="287.3" class="st2" width="617.7" height="2.9"/>
			<rect x="-7.8" y="290.2" class="st3" width="617.7" height="2.9"/>
			<rect x="-7.8" y="293.1" class="st4" width="617.7" height="2.9"/>
		</g>
		<g>
			<rect x="-7.8" y="291.4" class="st1" width="617.7" height="2.9"/>
			<rect x="-7.8" y="294.3" class="st2" width="617.7" height="2.9"/>
			<rect x="-7.8" y="297.2" class="st3" width="617.7" height="2.9"/>
			<rect x="-7.8" y="300.1" class="st4" width="617.7" height="2.9"/>
		</g>
		<g>
			<rect x="-7.8" y="298.4" class="st1" width="617.7" height="2.9"/>
			<rect x="-7.8" y="301.3" class="st2" width="617.7" height="2.9"/>
			<rect x="-7.8" y="304.2" class="st3" width="617.7" height="2.9"/>
			<rect x="-7.8" y="307.1" class="st4" width="617.7" height="2.9"/>
		</g>
		<g>
			<rect x="-7.8" y="305.4" class="st1" width="617.7" height="2.9"/>
			<rect x="-7.8" y="308.3" class="st2" width="617.7" height="2.9"/>
			<rect x="-7.8" y="311.2" class="st3" width="617.7" height="2.9"/>
			<rect x="-7.8" y="314.1" class="st4" width="617.7" height="2.9"/>
		</g>
		<g>
			<rect x="-7.8" y="312.4" class="st1" width="617.7" height="2.9"/>
			<rect x="-7.8" y="315.3" class="st2" width="617.7" height="2.9"/>
			<rect x="-7.8" y="318.2" class="st3" width="617.7" height="2.9"/>
			<rect x="-7.8" y="321.1" class="st4" width="617.7" height="2.9"/>
		</g>
		<g>
			<rect x="-7.8" y="319.4" class="st1" width="617.7" height="2.9"/>
			<rect x="-7.8" y="322.3" class="st2" width="617.7" height="2.9"/>
			<rect x="-7.8" y="325.2" class="st3" width="617.7" height="2.9"/>
			<rect x="-7.8" y="328.1" class="st4" width="617.7" height="2.9"/>
		</g>
		<g>
			<rect x="-7.8" y="326.4" class="st1" width="617.7" height="2.9"/>
			<rect x="-7.8" y="329.3" class="st2" width="617.7" height="2.9"/>
			<rect x="-7.8" y="332.2" class="st3" width="617.7" height="2.9"/>
			<rect x="-7.8" y="335.1" class="st4" width="617.7" height="2.9"/>
		</g>
		<g>
			<rect x="-7.8" y="333.4" class="st1" width="617.7" height="2.9"/>
			<rect x="-7.8" y="336.3" class="st2" width="617.7" height="2.9"/>
			<rect x="-7.8" y="339.2" class="st3" width="617.7" height="2.9"/>
			<rect x="-7.8" y="342.1" class="st4" width="617.7" height="2.9"/>
		</g>
		<g>
			<rect x="-7.8" y="340.4" class="st1" width="617.7" height="2.9"/>
			<rect x="-7.8" y="343.3" class="st2" width="617.7" height="2.9"/>
			<rect x="-7.8" y="346.2" class="st3" width="617.7" height="2.9"/>
			<rect x="-7.8" y="349.1" class="st4" width="617.7" height="2.9"/>
		</g>
		<g>
			<rect x="-7.8" y="347.4" class="st1" width="617.7" height="2.9"/>
			<rect x="-7.8" y="350.3" class="st2" width="617.7" height="2.9"/>
			<rect x="-7.8" y="353.2" class="st3" width="617.7" height="2.9"/>
			<rect x="-7.8" y="356.1" class="st4" width="617.7" height="2.9"/>
		</g>
		<g>
			<rect x="-7.8" y="354.4" class="st1" width="617.7" height="2.9"/>
			<rect x="-7.8" y="357.3" class="st2" width="617.7" height="2.9"/>
			<rect x="-7.8" y="360.1" class="st3" width="617.7" height="2.9"/>
			<rect x="-7.8" y="363" class="st4" width="617.7" height="2.9"/>
		</g>
		<g>
			<rect x="-7.8" y="361.3" class="st1" width="617.7" height="2.9"/>
			<rect x="-7.8" y="364.2" class="st2" width="617.7" height="2.9"/>
			<rect x="-7.8" y="367.1" class="st3" width="617.7" height="2.9"/>
			<rect x="-7.8" y="370" class="st4" width="617.7" height="2.9"/>
		</g>
		<g>
			<rect x="-7.8" y="368.3" class="st1" width="617.7" height="2.9"/>
			<rect x="-7.8" y="371.2" class="st2" width="617.7" height="2.9"/>
			<rect x="-7.8" y="374.1" class="st3" width="617.7" height="2.9"/>
			<rect x="-7.8" y="377" class="st4" width="617.7" height="2.9"/>
		</g>
		<g>
			<rect x="-7.8" y="375.3" class="st1" width="617.7" height="2.9"/>
			<rect x="-7.8" y="378.2" class="st2" width="617.7" height="2.9"/>
			<rect x="-7.8" y="381.1" class="st3" width="617.7" height="2.9"/>
			<rect x="-7.8" y="384" class="st4" width="617.7" height="2.9"/>
		</g>
		<g>
			<rect x="-7.8" y="382.3" class="st1" width="617.7" height="2.9"/>
			<rect x="-7.8" y="385.2" class="st2" width="617.7" height="2.9"/>
			<rect x="-7.8" y="388.1" class="st3" width="617.7" height="2.9"/>
			<rect x="-7.8" y="391" class="st4" width="617.7" height="2.9"/>
		</g>
		<g>
			<rect x="-7.8" y="389.3" class="st1" width="617.7" height="2.9"/>
			<rect x="-7.8" y="392.2" class="st2" width="617.7" height="2.9"/>
			<rect x="-7.8" y="395.1" class="st3" width="617.7" height="2.9"/>
			<rect x="-7.8" y="398" class="st4" width="617.7" height="2.9"/>
		</g>
		<g>
			<rect x="-7.8" y="396.3" class="st1" width="617.7" height="2.9"/>
			<rect x="-7.8" y="399.2" class="st2" width="617.7" height="2.9"/>
			<rect x="-7.8" y="402.1" class="st3" width="617.7" height="2.9"/>
			<rect x="-7.8" y="405" class="st4" width="617.7" height="2.9"/>
		</g>
		<g>
			<rect x="-7.8" y="403.3" class="st1" width="617.7" height="2.9"/>
			<rect x="-7.8" y="406.2" class="st2" width="617.7" height="2.9"/>
			<rect x="-7.8" y="409.1" class="st3" width="617.7" height="2.9"/>
			<rect x="-7.8" y="412" class="st4" width="617.7" height="2.9"/>
		</g>
		<g>
			<rect x="-7.8" y="410.3" class="st1" width="617.7" height="2.9"/>
			<rect x="-7.8" y="413.2" class="st2" width="617.7" height="2.9"/>
			<rect x="-7.8" y="416.1" class="st3" width="617.7" height="2.9"/>
			<rect x="-7.8" y="419" class="st4" width="617.7" height="2.9"/>
		</g>
		<g>
			<rect x="-7.8" y="417.3" class="st1" width="617.7" height="2.9"/>
			<rect x="-7.8" y="420.2" class="st2" width="617.7" height="2.9"/>
			<rect x="-7.8" y="423.1" class="st3" width="617.7" height="2.9"/>
			<rect x="-7.8" y="426" class="st4" width="617.7" height="2.9"/>
		</g>
		<g>
			<rect x="-7.8" y="424.3" class="st1" width="617.7" height="2.9"/>
			<rect x="-7.8" y="427.2" class="st2" width="617.7" height="2.9"/>
			<rect x="-7.8" y="430.1" class="st3" width="617.7" height="2.9"/>
			<rect x="-7.8" y="433" class="st4" width="617.7" height="2.9"/>
		</g>
		<g>
			<rect x="-7.8" y="431.3" class="st1" width="617.7" height="2.9"/>
			<rect x="-7.8" y="434.2" class="st2" width="617.7" height="2.9"/>
			<rect x="-7.8" y="437.1" class="st3" width="617.7" height="2.9"/>
			<rect x="-7.8" y="440" class="st4" width="617.7" height="2.9"/>
		</g>
		<g>
			<rect x="-7.8" y="438.3" class="st1" width="617.7" height="2.9"/>
			<rect x="-7.8" y="441.2" class="st2" width="617.7" height="2.9"/>
			<rect x="-7.8" y="444.1" class="st3" width="617.7" height="2.9"/>
			<rect x="-7.8" y="447" class="st4" width="617.7" height="2.9"/>
		</g>
		<g>
			<rect x="-7.8" y="445.3" class="st1" width="617.7" height="2.9"/>
			<rect x="-7.8" y="448.2" class="st2" width="617.7" height="2.9"/>
			<rect x="-7.8" y="451.1" class="st3" width="617.7" height="2.9"/>
			<rect x="-7.8" y="454" class="st4" width="617.7" height="2.9"/>
		</g>
		<g>
			<rect x="-7.8" y="452.3" class="st1" width="617.7" height="2.9"/>
			<rect x="-7.8" y="455.2" class="st2" width="617.7" height="2.9"/>
			<rect x="-7.8" y="458.1" class="st3" width="617.7" height="2.9"/>
			<rect x="-7.8" y="461" class="st4" width="617.7" height="2.9"/>
		</g>
		<g>
			<rect x="-7.8" y="459.3" class="st1" width="617.7" height="2.9"/>
			<rect x="-7.8" y="462.2" class="st2" width="617.7" height="2.9"/>
			<rect x="-7.8" y="465.1" class="st3" width="617.7" height="2.9"/>
			<rect x="-7.8" y="468" class="st4" width="617.7" height="2.9"/>
		</g>
		<g>
			<rect x="-7.8" y="466.3" class="st1" width="617.7" height="2.9"/>
			<rect x="-7.8" y="469.2" class="st2" width="617.7" height="2.9"/>
			<rect x="-7.8" y="472.1" class="st3" width="617.7" height="2.9"/>
			<rect x="-7.8" y="475" class="st4" width="617.7" height="2.9"/>
		</g>
		<g>
			<rect x="-7.8" y="473.3" class="st1" width="617.7" height="2.9"/>
			<rect x="-7.8" y="476.2" class="st2" width="617.7" height="2.9"/>
			<rect x="-7.8" y="479.1" class="st3" width="617.7" height="2.9"/>
			<rect x="-7.8" y="482" class="st4" width="617.7" height="2.9"/>
		</g>
		<g>
			<rect x="-7.8" y="480.3" class="st1" width="617.7" height="2.9"/>
			<rect x="-7.8" y="483.2" class="st2" width="617.7" height="2.9"/>
			<rect x="-7.8" y="486.1" class="st3" width="617.7" height="2.9"/>
			<rect x="-7.8" y="489" class="st4" width="617.7" height="2.9"/>
		</g>
		<g>
			<rect x="-7.8" y="487.3" class="st1" width="617.7" height="2.9"/>
			<rect x="-7.8" y="490.2" class="st2" width="617.7" height="2.9"/>
			<rect x="-7.8" y="493.1" class="st3" width="617.7" height="2.9"/>
			<rect x="-7.8" y="496" class="st4" width="617.7" height="2.9"/>
		</g>
		<g>
			<rect x="-7.8" y="494.3" class="st1" width="617.7" height="2.9"/>
			<rect x="-7.8" y="497.2" class="st2" width="617.7" height="2.9"/>
			<rect x="-7.8" y="500.1" class="st3" width="617.7" height="2.9"/>
			<rect x="-7.8" y="503" class="st4" width="617.7" height="2.9"/>
		</g>
		<g>
			<rect x="-7.8" y="501.3" class="st1" width="617.7" height="2.9"/>
			<rect x="-7.8" y="504.2" class="st2" width="617.7" height="2.9"/>
			<rect x="-7.8" y="507.1" class="st3" width="617.7" height="2.9"/>
			<rect x="-7.8" y="510" class="st4" width="617.7" height="2.9"/>
		</g>
		<g>
			<rect x="-7.8" y="508.3" class="st1" width="617.7" height="2.9"/>
			<rect x="-7.8" y="511.2" class="st2" width="617.7" height="2.9"/>
			<rect x="-7.8" y="514.1" class="st3" width="617.7" height="2.9"/>
			<rect x="-7.8" y="517" class="st4" width="617.7" height="2.9"/>
		</g>
		<g>
			<rect x="-7.8" y="515.3" class="st1" width="617.7" height="2.9"/>
			<rect x="-7.8" y="518.2" class="st2" width="617.7" height="2.9"/>
			<rect x="-7.8" y="521.1" class="st3" width="617.7" height="2.9"/>
			<rect x="-7.8" y="524" class="st4" width="617.7" height="2.9"/>
		</g>
		<g>
			<rect x="-7.8" y="522.3" class="st1" width="617.7" height="2.9"/>
			<rect x="-7.8" y="525.2" class="st2" width="617.7" height="2.9"/>
			<rect x="-7.8" y="528.1" class="st3" width="617.7" height="2.9"/>
			<rect x="-7.8" y="531" class="st4" width="617.7" height="2.9"/>
		</g>
		<g>
			<rect x="-7.8" y="529.3" class="st1" width="617.7" height="2.9"/>
			<rect x="-7.8" y="532.2" class="st2" width="617.7" height="2.9"/>
			<rect x="-7.8" y="535.1" class="st3" width="617.7" height="2.9"/>
			<rect x="-7.8" y="538" class="st4" width="617.7" height="2.9"/>
		</g>
		<g>
			<rect x="-7.8" y="536.3" class="st1" width="617.7" height="2.9"/>
			<rect x="-7.8" y="539.2" class="st2" width="617.7" height="2.9"/>
			<rect x="-7.8" y="542.1" class="st3" width="617.7" height="2.9"/>
			<rect x="-7.8" y="545" class="st4" width="617.7" height="2.9"/>
		</g>
		<g>
			<rect x="-7.8" y="543.3" class="st1" width="617.7" height="2.9"/>
			<rect x="-7.8" y="546.2" class="st2" width="617.7" height="2.9"/>
			<rect x="-7.8" y="549.1" class="st3" width="617.7" height="2.9"/>
			<rect x="-7.8" y="552" class="st4" width="617.7" height="2.9"/>
		</g>
		<g>
			<rect x="-7.8" y="550.3" class="st1" width="617.7" height="2.9"/>
			<rect x="-7.8" y="553.2" class="st2" width="617.7" height="2.9"/>
			<rect x="-7.8" y="556.1" class="st3" width="617.7" height="2.9"/>
			<rect x="-7.8" y="559" class="st4" width="617.7" height="2.9"/>
		</g>
		<g>
			<rect x="-7.8" y="557.3" class="st1" width="617.7" height="2.9"/>
			<rect x="-7.8" y="560.2" class="st2" width="617.7" height="2.9"/>
			<rect x="-7.8" y="563.1" class="st3" width="617.7" height="2.9"/>
			<rect x="-7.8" y="566" class="st4" width="617.7" height="2.9"/>
		</g>
		<g>
			<rect x="-7.8" y="564.3" class="st1" width="617.7" height="2.9"/>
			<rect x="-7.8" y="567.2" class="st2" width="617.7" height="2.9"/>
			<rect x="-7.8" y="570.1" class="st3" width="617.7" height="2.9"/>
			<rect x="-7.8" y="573" class="st4" width="617.7" height="2.9"/>
		</g>
		<g>
			<rect x="-7.8" y="571.3" class="st1" width="617.7" height="2.9"/>
			<rect x="-7.8" y="574.2" class="st2" width="617.7" height="2.9"/>
			<rect x="-7.8" y="577.1" class="st3" width="617.7" height="2.9"/>
			<rect x="-7.8" y="580" class="st4" width="617.7" height="2.9"/>
		</g>
		<g>
			<rect x="-7.8" y="578.3" class="st1" width="617.7" height="2.9"/>
			<rect x="-7.8" y="581.2" class="st2" width="617.7" height="2.9"/>
			<rect x="-7.8" y="584.1" class="st3" width="617.7" height="2.9"/>
			<rect x="-7.8" y="587" class="st4" width="617.7" height="2.9"/>
		</g>
		<g>
			<rect x="-7.8" y="585.3" class="st1" width="617.7" height="2.9"/>
			<rect x="-7.8" y="588.2" class="st2" width="617.7" height="2.9"/>
			<rect x="-7.8" y="591.1" class="st3" width="617.7" height="2.9"/>
			<rect x="-7.8" y="594" class="st4" width="617.7" height="2.9"/>
		</g>
		<g>
			<rect x="-7.8" y="592.3" class="st1" width="617.7" height="2.9"/>
			<rect x="-7.8" y="595.2" class="st2" width="617.7" height="2.9"/>
			<rect x="-7.8" y="598.1" class="st3" width="617.7" height="2.9"/>
			<rect x="-7.8" y="601" class="st4" width="617.7" height="2.9"/>
		</g>
		<g>
			<rect x="-7.8" y="599.3" class="st1" width="617.7" height="2.9"/>
			<rect x="-7.8" y="602.2" class="st2" width="617.7" height="2.9"/>
			<rect x="-7.8" y="605.1" class="st3" width="617.7" height="2.9"/>
			<rect x="-7.8" y="608" class="st4" width="617.7" height="2.9"/>
		</g>
		<g>
			<rect x="-7.8" y="606.3" class="st1" width="617.7" height="2.9"/>
			<rect x="-7.8" y="609.2" class="st2" width="617.7" height="2.9"/>
			<rect x="-7.8" y="612.1" class="st3" width="617.7" height="2.9"/>
			<rect x="-7.8" y="615" class="st4" width="617.7" height="2.9"/>
		</g>
		<g>
			<rect x="-7.8" y="613.3" class="st1" width="617.7" height="2.9"/>
			<rect x="-7.8" y="616.2" class="st2" width="617.7" height="2.9"/>
			<rect x="-7.8" y="619.1" class="st3" width="617.7" height="2.9"/>
			<rect x="-7.8" y="622" class="st4" width="617.7" height="2.9"/>
		</g>
		<g>
			<rect x="-7.8" y="620.3" class="st1" width="617.7" height="2.9"/>
			<rect x="-7.8" y="623.2" class="st2" width="617.7" height="2.9"/>
			<rect x="-7.8" y="626.1" class="st3" width="617.7" height="2.9"/>
			<rect x="-7.8" y="629" class="st4" width="617.7" height="2.9"/>
		</g>
	</g>
</g>
</svg>
