<?xml version="1.0" encoding="utf-8"?>
<!-- Generator: Adobe Illustrator 27.5.0, SVG Export Plug-In . SVG Version: 6.00 Build 0)  -->
<svg version="1.1"
	 id="svg2" xmlns:sodipodi="http://sodipodi.sourceforge.net/DTD/sodipodi-0.dtd" xmlns:svg="http://www.w3.org/2000/svg" xmlns:rdf="http://www.w3.org/1999/02/22-rdf-syntax-ns#" xmlns:cc="http://creativecommons.org/ns#" xmlns:dc="http://purl.org/dc/elements/1.1/" xmlns:inkscape="http://www.inkscape.org/namespaces/inkscape" inkscape:version="0.48.2 r9819" sodipodi:docname="Airdrop - Copie.svg"
	 xmlns="http://www.w3.org/2000/svg" xmlns:xlink="http://www.w3.org/1999/xlink" x="0px" y="0px" viewBox="0 0 602 602"
	 style="enable-background:new 0 0 602 602;" xml:space="preserve">
<style type="text/css">
	.st0{clip-path:url(#SVGID_00000049930611895291612660000011115318176567189694_);}
	.st1{fill:#0043FF;}
	.st2{fill:#F72F6D;}
	.st3{fill:#00FF30;}
	.st4{fill:#F46431;}
	.st5{fill:none;}
	.st6{fill:url(#SVGID_00000157274517048907426120000003772745760885604027_);}
</style>
<sodipodi:namedview  bordercolor="#666666" borderopacity="1.0" id="base" inkscape:current-layer="layer1" inkscape:cx="-298.61733" inkscape:cy="36.893627" inkscape:document-units="px" inkscape:pageopacity="0.0" inkscape:pageshadow="2" inkscape:window-height="706" inkscape:window-maximized="1" inkscape:window-width="1366" inkscape:window-x="-8" inkscape:window-y="-8" inkscape:zoom="0.37410882" pagecolor="#ffffff" showgrid="false">
	</sodipodi:namedview>
<g>
	<defs>
		<path id="SVGID_1_" d="M301,5C137.5,5,5,137.5,5,301s132.5,296,296,296s296-132.5,296-296S464.5,5,301,5z M301,580.7
			C146.5,580.7,21.3,455.5,21.3,301S146.5,21.3,301,21.3S580.7,146.5,580.7,301S455.5,580.7,301,580.7z"/>
	</defs>
	<clipPath id="SVGID_00000063634626361874276160000017204616361840361618_">
		<use xlink:href="#SVGID_1_"  style="overflow:visible;"/>
	</clipPath>
	<g style="clip-path:url(#SVGID_00000063634626361874276160000017204616361840361618_);">
		<g>
			<g>
				<path class="st1" d="M609.8-42.9C403.9-48.8,198.1-22.8-7.8-28.5c0-1.1,0-2.1,0-3.2c205.9-4.8,411.8-9.7,617.7-14.5
					C609.8-45.1,609.8-44,609.8-42.9z"/>
				<path class="st2" d="M609.8-39.6C403.9-56.1,198.1-9.2-7.8-25.4c0-1.1,0-2.1,0-3.2c205.9,5.7,411.8-20.2,617.7-14.4
					C609.8-41.8,609.8-40.7,609.8-39.6z"/>
				<path class="st3" d="M609.8-36.3C403.9-63.3,198.1,4.4-7.8-22.2c0-1.1,0-2.1,0-3.2C198.1-9.2,403.9-56.1,609.8-39.6
					C609.8-38.5,609.8-37.4,609.8-36.3z"/>
				<path class="st4" d="M609.8-33C403.9-70.4,198.1,17.8-7.8-19c0-1.1,0-2.1,0-3.2C198.1,4.4,403.9-63.3,609.8-36.3
					C609.8-35.2,609.8-34.1,609.8-33z"/>
			</g>
			<g>
				<path class="st1" d="M609.8-31.6C403.9-73.4,198.1,23.6-7.8-17.6c0-1.1,0-2.1,0-3.2c205.9,31,411.8-45.6,617.7-14.1
					C609.8-33.8,609.8-32.7,609.8-31.6z"/>
				<path class="st2" d="M609.8-28.3C403.9-80.4,198.1,36.9-7.8-14.5c0-1.1,0-2.1,0-3.2c205.9,41.3,411.8-55.8,617.7-13.9
					C609.8-30.5,609.8-29.4,609.8-28.3z"/>
				<path class="st3" d="M609.8-24.9C403.9-87.3,198.1,50.2-7.8-11.3c0-1.1,0-2.1,0-3.2c205.9,51.4,411.8-66,617.7-13.8
					C609.8-27.2,609.8-26.1,609.8-24.9z"/>
				<path class="st4" d="M609.8-21.6C403.9-94.1,198.1,63.3-7.8-8.1c0-1.1,0-2.1,0-3.2c205.9,61.4,411.8-76,617.7-13.7
					C609.8-23.8,609.8-22.7,609.8-21.6z"/>
			</g>
			<g>
				<path class="st1" d="M609.8-20.2C403.9-97,198.1,68.9-7.8-6.7c0-1.1,0-2.1,0-3.2c205.9,65.8,411.8-80.3,617.7-13.6
					C609.8-22.4,609.8-21.3,609.8-20.2z"/>
				<path class="st2" d="M609.8-16.9C403.9-103.6,198.1,81.9-7.8-3.5c0-1.1,0-2.1,0-3.2C198.1,68.9,403.9-97,609.8-20.2
					C609.8-19.1,609.8-18,609.8-16.9z"/>
				<path class="st3" d="M609.8-13.6C403.9-110.2,198.1,94.8-7.8-0.4c0-1.1,0-2.1,0-3.2c205.9,85.5,411.8-100.1,617.7-13.4
					C609.8-15.8,609.8-14.7,609.8-13.6z"/>
				<path class="st4" d="M609.8-10.3C403.9-116.6,198.1,107.7-7.8,2.8c0-1.1,0-2.1,0-3.2c205.9,95.2,411.8-109.8,617.7-13.2
					C609.8-12.5,609.8-11.4,609.8-10.3z"/>
			</g>
			<g>
				<path class="st1" d="M609.8-8.9c-205.9-110.5-411.8,122-617.7,13c0-1.1,0-2.1,0-3.2c205.9,99.4,411.8-114,617.7-13.2
					C609.8-11.1,609.8-10,609.8-8.9z"/>
				<path class="st2" d="M609.8-5.6C403.9-125.7,198.1,125.8-7.8,7.4c0-1.1,0-2.1,0-3.2c205.9,109,411.8-123.5,617.7-13
					C609.8-7.8,609.8-6.7,609.8-5.6z"/>
				<path class="st3" d="M609.8-2.2C403.9-131.9,198.1,138.4-7.8,10.5c0-1.1,0-2.1,0-3.2c205.9,118.5,411.8-133,617.7-12.9
					C609.8-4.5,609.8-3.3,609.8-2.2z"/>
				<path class="st4" d="M609.8,1.1C403.9-138,198.1,150.9-7.8,13.7c0-1.1,0-2.1,0-3.2C198.1,138.4,403.9-131.9,609.8-2.2
					C609.8-1.1,609.8,0,609.8,1.1z"/>
			</g>
			<g>
				<path class="st1" d="M609.8,2.5C403.9-140.6,198.1,156.3-7.8,15.1c0-1.1,0-2.1,0-3.2C198.1,143.8,403.9-134.5,609.8-0.8
					C609.8,0.3,609.8,1.4,609.8,2.5z"/>
				<path class="st2" d="M609.8,5.8C403.9-146.6,198.1,168.6-7.8,18.3c0-1.1,0-2.1,0-3.2C198.1,156.3,403.9-140.6,609.8,2.5
					C609.8,3.6,609.8,4.7,609.8,5.8z"/>
				<path class="st3" d="M609.8,9.1C403.9-152.5,198.1,180.9-7.8,21.4c0-1.1,0-2.1,0-3.2C198.1,168.6,403.9-146.6,609.8,5.8
					C609.8,6.9,609.8,8,609.8,9.1z"/>
				<path class="st4" d="M609.8,12.4C403.9-158.3,198.1,193-7.8,24.6c0-1.1,0-2.1,0-3.2C198.1,180.9,403.9-152.5,609.8,9.1
					C609.8,10.2,609.8,11.3,609.8,12.4z"/>
			</g>
			<g>
				<path class="st1" d="M609.8,13.8C403.9-160.8,198.1,198.2-7.8,26c0-1.1,0-2.1,0-3.2C198.1,186.1,403.9-155,609.8,10.5
					C609.8,11.6,609.8,12.7,609.8,13.8z"/>
				<path class="st2" d="M609.8,17.2C403.9-166.4,198.1,210.3-7.8,29.2c0-1.1,0-2.1,0-3.2c205.9,172.2,411.8-186.8,617.7-12.1
					C609.8,14.9,609.8,16,609.8,17.2z"/>
				<path class="st3" d="M609.8,20.5C403.9-172,198.1,222.2-7.8,32.3c0-1.1,0-2.1,0-3.2c205.9,181.1,411.8-195.6,617.7-12
					C609.8,18.3,609.8,19.4,609.8,20.5z"/>
				<path class="st4" d="M609.8,23.8C403.9-177.4,198.1,234-7.8,35.5c0-1.1,0-2.1,0-3.2C198.1,222.2,403.9-172,609.8,20.5
					C609.8,21.6,609.8,22.7,609.8,23.8z"/>
			</g>
			<g>
				<path class="st1" d="M609.8,25.2C403.9-179.8,198.1,239.1-7.8,36.9c0-1.1,0-2.1,0-3.2c205.9,193.6,411.8-208.1,617.7-11.8
					C609.8,23,609.8,24.1,609.8,25.2z"/>
				<path class="st2" d="M609.8,28.5C403.9-185.1,198.1,250.8-7.8,40.1c0-1.1,0-2.1,0-3.2c205.9,202.2,411.8-216.7,617.7-11.7
					C609.8,26.3,609.8,27.4,609.8,28.5z"/>
				<path class="st3" d="M609.8,31.8C403.9-190.3,198.1,262.4-7.8,43.3c0-1.1,0-2.1,0-3.2c205.9,210.7,411.8-225.2,617.7-11.6
					C609.8,29.6,609.8,30.7,609.8,31.8z"/>
				<path class="st4" d="M609.8,35.1C403.9-195.5,198.1,273.9-7.8,46.4c0-1.1,0-2.1,0-3.2c205.9,219.2,411.8-233.6,617.7-11.4
					C609.8,32.9,609.8,34,609.8,35.1z"/>
			</g>
			<g>
				<path class="st1" d="M609.8,36.5C403.9-197.7,198.1,278.9-7.8,47.8c0-1.1,0-2.1,0-3.2c205.9,222.8,411.8-237.2,617.7-11.4
					C609.8,34.3,609.8,35.4,609.8,36.5z"/>
				<path class="st2" d="M609.8,39.9C403.9-202.7,198.1,290.2-7.8,51c0-1.1,0-2.1,0-3.2c205.9,231.1,411.8-245.5,617.7-11.3
					C609.8,37.7,609.8,38.8,609.8,39.9z"/>
				<path class="st3" d="M609.8,43.2C403.9-207.6,198.1,301.5-7.8,54.2c0-1.1,0-2.1,0-3.2c205.9,239.3,411.8-253.7,617.7-11.1
					C609.8,41,609.8,42.1,609.8,43.2z"/>
				<path class="st4" d="M609.8,46.5C403.9-212.4,198.1,312.7-7.8,57.3c0-1.1,0-2.1,0-3.2c205.9,247.4,411.8-261.7,617.7-11
					C609.8,44.3,609.8,45.4,609.8,46.5z"/>
			</g>
			<g>
				<path class="st1" d="M609.8,47.9C403.9-214.4,198.1,317.5-7.8,58.7c0-1.1,0-2.1,0-3.2c205.9,250.8,411.8-265.2,617.7-10.9
					C609.8,45.7,609.8,46.8,609.8,47.9z"/>
				<path class="st2" d="M609.8,51.2C403.9-219.1,198.1,328.6-7.8,61.9c0-1.1,0-2.1,0-3.2c205.9,258.8,411.8-273.1,617.7-10.8
					C609.8,49,609.8,50.1,609.8,51.2z"/>
				<path class="st3" d="M609.8,54.5C403.9-223.7,198.1,339.5-7.8,65.1c0-1.1,0-2.1,0-3.2c205.9,266.7,411.8-281,617.7-10.7
					C609.8,52.3,609.8,53.4,609.8,54.5z"/>
				<path class="st4" d="M609.8,57.8C403.9-228.1,198.1,350.4-7.8,68.2c0-1.1,0-2.1,0-3.2c205.9,274.5,411.8-288.7,617.7-10.6
					C609.8,55.6,609.8,56.7,609.8,57.8z"/>
			</g>
			<g>
				<path class="st1" d="M609.8,59.3C403.9-230.1,198.1,355-7.8,69.6c0-1.1,0-2.1,0-3.2c205.9,277.8,411.8-292.1,617.7-10.5
					C609.8,57,609.8,58.2,609.8,59.3z"/>
				<path class="st2" d="M609.8,62.6C403.9-234.4,198.1,365.8-7.8,72.8c0-1.1,0-2.1,0-3.2C198.1,355,403.9-230.1,609.8,59.3
					C609.8,60.4,609.8,61.5,609.8,62.6z"/>
				<path class="st3" d="M609.8,65.9C403.9-238.6,198.1,376.4-7.8,76c0-1.1,0-2.1,0-3.2c205.9,293,411.8-307.2,617.7-10.2
					C609.8,63.7,609.8,64.8,609.8,65.9z"/>
				<path class="st4" d="M609.8,69.2c-205.9-312-411.8,317.8-617.7,10c0-1.1,0-2.1,0-3.2c205.9,300.4,411.8-314.6,617.7-10.1
					C609.8,67,609.8,68.1,609.8,69.2z"/>
			</g>
			<g>
				<path class="st1" d="M609.8,70.6C403.9-244.6,198.1,391.5-7.8,80.5c0-1.1,0-2.1,0-3.2C198.1,381,403.9-240.4,609.8,67.3
					C609.8,68.4,609.8,69.5,609.8,70.6z"/>
				<path class="st2" d="M609.8,73.9c-205.9-322.5-411.8,328-617.7,9.8c0-1.1,0-2.1,0-3.2c205.9,310.9,411.8-325.1,617.7-9.9
					C609.8,71.7,609.8,72.8,609.8,73.9z"/>
				<path class="st3" d="M609.8,77.2c-205.9-329.7-411.8,335-617.7,9.7c0-1.1,0-2.1,0-3.2c205.9,318.2,411.8-332.3,617.7-9.8
					C609.8,75,609.8,76.1,609.8,77.2z"/>
				<path class="st4" d="M609.8,80.5C403.9-256.3,198.1,422.4-7.8,90.1c0-1.1,0-2.1,0-3.2c205.9,325.3,411.8-339.4,617.7-9.7
					C609.8,78.3,609.8,79.4,609.8,80.5z"/>
			</g>
			<g>
				<path class="st1" d="M609.8,82C403.9-257.9,198.1,426.8-7.8,91.4c0-1.1,0-2.1,0-3.2c205.9,328.3,411.8-342.4,617.7-9.6
					C609.8,79.8,609.8,80.9,609.8,82z"/>
				<path class="st2" d="M609.8,85.3C403.9-261.6,198.1,436.9-7.8,94.6c0-1.1,0-2.1,0-3.2C198.1,426.8,403.9-257.9,609.8,82
					C609.8,83.1,609.8,84.2,609.8,85.3z"/>
				<path class="st3" d="M609.8,88.6C403.9-265.2,198.1,446.8-7.8,97.8c0-1.1,0-2.1,0-3.2c205.9,342.2,411.8-356.2,617.7-9.3
					C609.8,86.4,609.8,87.5,609.8,88.6z"/>
				<path class="st4" d="M609.8,91.9C403.9-268.7,198.1,456.7-7.8,101c0-1.1,0-2.1,0-3.2c205.9,349,411.8-363,617.7-9.2
					C609.8,89.7,609.8,90.8,609.8,91.9z"/>
			</g>
			<g>
				<path class="st1" d="M609.8,93.3C403.9-270.2,198.1,461-7.8,102.3c0-1.1,0-2.1,0-3.2c205.9,352,411.8-365.9,617.7-9.2
					C609.8,91.1,609.8,92.2,609.8,93.3z"/>
				<path class="st2" d="M609.8,96.6C403.9-273.5,198.1,470.7-7.8,105.5c0-1.1,0-2.1,0-3.2c205.9,358.6,411.8-372.5,617.7-9
					C609.8,94.4,609.8,95.5,609.8,96.6z"/>
				<path class="st3" d="M609.8,99.9C403.9-276.8,198.1,480.4-7.8,108.7c0-1.1,0-2.1,0-3.2c205.9,365.2,411.8-379,617.7-8.9
					C609.8,97.7,609.8,98.8,609.8,99.9z"/>
				<path class="st4" d="M609.8,103.2C403.9-280,198.1,489.9-7.8,111.9c0-1.1,0-2.1,0-3.2c205.9,371.7,411.8-385.5,617.7-8.8
					C609.8,101,609.8,102.1,609.8,103.2z"/>
			</g>
			<g>
				<path class="st1" d="M609.8,104.7c-205.9-386-411.8,389.4-617.7,8.6c0-1.1,0-2.1,0-3.2c205.9,374.5,411.8-388.2,617.7-8.7
					C609.8,102.5,609.8,103.6,609.8,104.7z"/>
				<path class="st2" d="M609.8,108C403.9-284.3,198.1,503.5-7.8,116.4c0-1.1,0-2.1,0-3.2c205.9,380.8,411.8-394.5,617.7-8.6
					C609.8,105.8,609.8,106.9,609.8,108z"/>
				<path class="st3" d="M609.8,111.3C403.9-287.2,198.1,512.8-7.8,119.6c0-1.1,0-2.1,0-3.2c205.9,387.1,411.8-400.7,617.7-8.5
					C609.8,109.1,609.8,110.2,609.8,111.3z"/>
				<path class="st4" d="M609.8,114.6C403.9-290.1,198.1,522.1-7.8,122.8c0-1.1,0-2.1,0-3.2c205.9,393.2,411.8-406.9,617.7-8.3
					C609.8,112.4,609.8,113.5,609.8,114.6z"/>
			</g>
			<g>
				<path class="st1" d="M609.8,116C403.9-291.3,198.1,526-7.8,124.2c0-1.1,0-2.1,0-3.2c205.9,395.8,411.8-409.5,617.7-8.3
					C609.8,113.8,609.8,114.9,609.8,116z"/>
				<path class="st2" d="M609.8,119.3C403.9-294,198.1,535.1-7.8,127.3c0-1.1,0-2.1,0-3.2C198.1,526,403.9-291.3,609.8,116
					C609.8,117.1,609.8,118.2,609.8,119.3z"/>
				<path class="st3" d="M609.8,122.6C403.9-296.6,198.1,544.1-7.8,130.5c0-1.1,0-2.1,0-3.2c205.9,407.8,411.8-421.3,617.7-8
					C609.8,120.4,609.8,121.5,609.8,122.6z"/>
				<path class="st4" d="M609.8,125.9c-205.9-425-411.8,427.1-617.7,7.8c0-1.1,0-2.1,0-3.2c205.9,413.6,411.8-427.1,617.7-7.9
					C609.8,123.7,609.8,124.8,609.8,125.9z"/>
			</g>
			<g>
				<path class="st1" d="M609.8,127.4C403.9-300.1,198.1,556.9-7.8,135.1c0-1.1,0-2.1,0-3.2c205.9,416.1,411.8-429.6,617.7-7.8
					C609.8,125.2,609.8,126.3,609.8,127.4z"/>
				<path class="st2" d="M609.8,130.7c-205.9-433.2-411.8,435-617.7,7.6c0-1.1,0-2.1,0-3.2c205.9,421.8,411.8-435.2,617.7-7.7
					C609.8,128.5,609.8,129.6,609.8,130.7z"/>
				<path class="st3" d="M609.8,134C403.9-304.8,198.1,574.3-7.8,141.4c0-1.1,0-2.1,0-3.2c205.9,427.4,411.8-440.8,617.7-7.6
					C609.8,131.8,609.8,132.9,609.8,134z"/>
				<path class="st4" d="M609.8,137.3C403.9-307,198.1,582.9-7.8,144.6c0-1.1,0-2.1,0-3.2c205.9,432.9,411.8-446.2,617.7-7.4
					C609.8,135.1,609.8,136.2,609.8,137.3z"/>
			</g>
			<g>
				<path class="st1" d="M609.8,138.7C403.9-307.9,198.1,586.6-7.8,146c0-1.1,0-2.1,0-3.2c205.9,435.3,411.8-448.5,617.7-7.4
					C609.8,136.5,609.8,137.6,609.8,138.7z"/>
				<path class="st2" d="M609.8,142C403.9-309.9,198.1,595.1-7.8,149.1c0-1.1,0-2.1,0-3.2c205.9,440.6,411.8-453.8,617.7-7.3
					C609.8,139.8,609.8,140.9,609.8,142z"/>
				<path class="st3" d="M609.8,145.3c-205.9-457.2-411.8,458.1-617.7,7c0-1.1,0-2.1,0-3.2c205.9,445.9,411.8-459.1,617.7-7.1
					C609.8,143.1,609.8,144.2,609.8,145.3z"/>
				<path class="st4" d="M609.8,148.6C403.9-313.7,198.1,611.7-7.8,155.5c0-1.1,0-2.1,0-3.2c205.9,451.1,411.8-464.2,617.7-7
					C609.8,146.4,609.8,147.5,609.8,148.6z"/>
			</g>
			<g>
				<path class="st1" d="M609.8,150.1C403.9-314.5,198.1,615.2-7.8,156.9c0-1.1,0-2.1,0-3.2c205.9,453.3,411.8-466.4,617.7-6.9
					C609.8,147.9,609.8,149,609.8,150.1z"/>
				<path class="st2" d="M609.8,153.4c-205.9-469.6-411.8,470-617.7,6.7c0-1.1,0-2.1,0-3.2c205.9,458.4,411.8-471.4,617.7-6.8
					C609.8,151.2,609.8,152.3,609.8,153.4z"/>
				<path class="st3" d="M609.8,156.7C403.9-317.8,198.1,631.4-7.8,163.2c0-1.1,0-2.1,0-3.2c205.9,463.3,411.8-476.3,617.7-6.7
					C609.8,154.5,609.8,155.6,609.8,156.7z"/>
				<path class="st4" d="M609.8,160C403.9-319.3,198.1,639.4-7.8,166.4c0-1.1,0-2.1,0-3.2c205.9,468.2,411.8-481,617.7-6.5
					C609.8,157.8,609.8,158.9,609.8,160z"/>
			</g>
			<g>
				<path class="st1" d="M609.8,161.4C403.9-320,198.1,642.8-7.8,167.8c0-1.1,0-2.1,0-3.2c205.9,470.3,411.8-483.1,617.7-6.5
					C609.8,159.2,609.8,160.3,609.8,161.4z"/>
				<path class="st2" d="M609.8,164.7C403.9-321.3,198.1,650.6-7.8,171c0-1.1,0-2.1,0-3.2c205.9,475,411.8-487.7,617.7-6.4
					C609.8,162.5,609.8,163.6,609.8,164.7z"/>
				<path class="st3" d="M609.8,168C403.9-322.6,198.1,658.3-7.8,174.1c0-1.1,0-2.1,0-3.2c205.9,479.6,411.8-492.3,617.7-6.2
					C609.8,165.8,609.8,166.9,609.8,168z"/>
				<path class="st4" d="M609.8,171.3c-205.9-495.2-411.8,494.6-617.7,6c0-1.1,0-2.1,0-3.2c205.9,484.1,411.8-496.8,617.7-6.1
					C609.8,169.1,609.8,170.2,609.8,171.3z"/>
			</g>
			<g>
				<path class="st1" d="M609.8,172.8C403.9-324.3,198.1,669.2-7.8,178.7c0-1.1,0-2.1,0-3.2c205.9,486.1,411.8-498.7,617.7-6
					C609.8,170.6,609.8,171.7,609.8,172.8z"/>
				<path class="st2" d="M609.8,176.1C403.9-325.4,198.1,676.7-7.8,181.9c0-1.1,0-2.1,0-3.2c205.9,490.5,411.8-503,617.7-5.9
					C609.8,173.9,609.8,175,609.8,176.1z"/>
				<path class="st3" d="M609.8,179.4C403.9-326.3,198.1,684-7.8,185c0-1.1,0-2.1,0-3.2c205.9,494.8,411.8-507.2,617.7-5.8
					C609.8,177.2,609.8,178.3,609.8,179.4z"/>
				<path class="st4" d="M609.8,182.7C403.9-327.2,198.1,691.3-7.8,188.2c0-1.1,0-2.1,0-3.2c205.9,499,411.8-511.4,617.7-5.7
					C609.8,180.5,609.8,181.6,609.8,182.7z"/>
			</g>
			<g>
				<path class="st1" d="M609.8,184.1C403.9-327.5,198.1,694.5-7.8,189.6c0-1.1,0-2.1,0-3.2c205.9,500.8,411.8-513.1,617.7-5.6
					C609.8,181.9,609.8,183,609.8,184.1z"/>
				<path class="st2" d="M609.8,187.4C403.9-328.3,198.1,701.6-7.8,192.8c0-1.1,0-2.1,0-3.2c205.9,504.9,411.8-517.1,617.7-5.5
					C609.8,185.2,609.8,186.3,609.8,187.4z"/>
				<path class="st3" d="M609.8,190.7C403.9-328.9,198.1,708.7-7.8,196c0-1.1,0-2.1,0-3.2c205.9,508.8,411.8-521,617.7-5.3
					C609.8,188.5,609.8,189.6,609.8,190.7z"/>
				<path class="st4" d="M609.8,194.1C403.9-329.4,198.1,715.7-7.8,199.1c0-1.1,0-2.1,0-3.2c205.9,512.7,411.8-524.8,617.7-5.2
					C609.8,191.8,609.8,192.9,609.8,194.1z"/>
			</g>
			<g>
				<path class="st1" d="M609.8,195.5c-205.9-525.1-411.8,523.2-617.7,5c0-1.1,0-2.1,0-3.2c205.9,514.4,411.8-526.5,617.7-5.2
					C609.8,193.3,609.8,194.4,609.8,195.5z"/>
				<path class="st2" d="M609.8,198.8C403.9-330,198.1,725.5-7.8,203.7c0-1.1,0-2.1,0-3.2c205.9,518.1,411.8-530.1,617.7-5
					C609.8,196.6,609.8,197.7,609.8,198.8z"/>
				<path class="st3" d="M609.8,202.1C403.9-330.3,198.1,732.2-7.8,206.9c0-1.1,0-2.1,0-3.2c205.9,521.8,411.8-533.7,617.7-4.9
					C609.8,199.9,609.8,201,609.8,202.1z"/>
				<path class="st4" d="M609.8,205.4C403.9-330.5,198.1,738.9-7.8,210c0-1.1,0-2.1,0-3.2c205.9,525.4,411.8-537.2,617.7-4.8
					C609.8,203.2,609.8,204.3,609.8,205.4z"/>
			</g>
			<g>
				<path class="st1" d="M609.8,206.8C403.9-330.6,198.1,741.7-7.8,211.4c0-1.1,0-2.1,0-3.2c205.9,526.9,411.8-538.7,617.7-4.7
					C609.8,204.6,609.8,205.7,609.8,206.8z"/>
				<path class="st2" d="M609.8,210.1C403.9-330.7,198.1,748.2-7.8,214.6c0-1.1,0-2.1,0-3.2c205.9,530.3,411.8-542,617.7-4.6
					C609.8,207.9,609.8,209,609.8,210.1z"/>
				<path class="st3" d="M609.8,213.4C403.9-330.6,198.1,754.6-7.8,217.8c0-1.1,0-2.1,0-3.2c205.9,533.6,411.8-545.3,617.7-4.5
					C609.8,211.2,609.8,212.3,609.8,213.4z"/>
				<path class="st4" d="M609.8,216.8C403.9-330.5,198.1,761-7.8,220.9c0-1.1,0-2.1,0-3.2c205.9,536.9,411.8-548.4,617.7-4.3
					C609.8,214.5,609.8,215.7,609.8,216.8z"/>
			</g>
			<g>
				<path class="st1" d="M609.8,218.2C403.9-330.4,198.1,763.7-7.8,222.3c0-1.1,0-2.1,0-3.2c205.9,538.2,411.8-549.7,617.7-4.3
					C609.8,216,609.8,217.1,609.8,218.2z"/>
				<path class="st2" d="M609.8,221.5c-205.9-551.7-411.8,548.4-617.7,4c0-1.1,0-2.1,0-3.2c205.9,541.3,411.8-552.8,617.7-4.1
					C609.8,219.3,609.8,220.4,609.8,221.5z"/>
				<path class="st3" d="M609.8,224.8C403.9-329.8,198.1,775.9-7.8,228.7c0-1.1,0-2.1,0-3.2c205.9,544.3,411.8-555.7,617.7-4
					C609.8,222.6,609.8,223.7,609.8,224.8z"/>
				<path class="st4" d="M609.8,228.1C403.9-329.4,198.1,781.9-7.8,231.9c0-1.1,0-2.1,0-3.2c205.9,547.3,411.8-558.5,617.7-3.9
					C609.8,225.9,609.8,227,609.8,228.1z"/>
			</g>
			<g>
				<path class="st1" d="M609.8,229.5c-205.9-558.7-411.8,555-617.7,3.7c0-1.1,0-2.1,0-3.2c205.9,548.5,411.8-559.7,617.7-3.8
					C609.8,227.3,609.8,228.4,609.8,229.5z"/>
				<path class="st2" d="M609.8,232.8C403.9-328.6,198.1,790.4-7.8,236.4c0-1.1,0-2.1,0-3.2c205.9,551.3,411.8-562.4,617.7-3.7
					C609.8,230.6,609.8,231.7,609.8,232.8z"/>
				<path class="st3" d="M609.8,236.2c-205.9-564-411.8,560-617.7,3.4c0-1.1,0-2.1,0-3.2c205.9,554,411.8-565,617.7-3.6
					C609.8,233.9,609.8,235,609.8,236.2z"/>
				<path class="st4" d="M609.8,239.5C403.9-327.1,198.1,801.8-7.8,242.8c0-1.1,0-2.1,0-3.2c205.9,556.5,411.8-567.5,617.7-3.4
					C609.8,237.3,609.8,238.4,609.8,239.5z"/>
			</g>
			<g>
				<path class="st1" d="M609.8,240.9C403.9-326.7,198.1,804.2-7.8,244.1c0-1.1,0-2.1,0-3.2c205.9,557.6,411.8-568.5,617.7-3.4
					C609.8,238.7,609.8,239.8,609.8,240.9z"/>
				<path class="st2" d="M609.8,244.2c-205.9-570-411.8,565.6-617.7,3.1c0-1.1,0-2.1,0-3.2c205.9,560.1,411.8-570.9,617.7-3.2
					C609.8,242,609.8,243.1,609.8,244.2z"/>
				<path class="st3" d="M609.8,247.5c-205.9-572.3-411.8,567.7-617.7,3c0-1.1,0-2.1,0-3.2c205.9,562.4,411.8-573.1,617.7-3.1
					C609.8,245.3,609.8,246.4,609.8,247.5z"/>
				<path class="st4" d="M609.8,250.8C403.9-323.7,198.1,820.6-7.8,253.7c0-1.1,0-2.1,0-3.2c205.9,564.7,411.8-575.3,617.7-3
					C609.8,248.6,609.8,249.7,609.8,250.8z"/>
			</g>
			<g>
				<path class="st1" d="M609.8,252.2C403.9-323.2,198.1,822.8-7.8,255c0-1.1,0-2.1,0-3.2c205.9,565.7,411.8-576.2,617.7-2.9
					C609.8,250,609.8,251.1,609.8,252.2z"/>
				<path class="st2" d="M609.8,255.5C403.9-321.9,198.1,828.1-7.8,258.2c0-1.1,0-2.1,0-3.2c205.9,567.8,411.8-578.2,617.7-2.8
					C609.8,253.3,609.8,254.4,609.8,255.5z"/>
				<path class="st3" d="M609.8,258.9C403.9-320.6,198.1,833.2-7.8,261.4c0-1.1,0-2.1,0-3.2c205.9,569.8,411.8-580.2,617.7-2.7
					C609.8,256.7,609.8,257.8,609.8,258.9z"/>
				<path class="st4" d="M609.8,262.2c-205.9-581.3-411.8,576-617.7,2.4c0-1.1,0-2.1,0-3.2c205.9,571.8,411.8-582,617.7-2.5
					C609.8,260,609.8,261.1,609.8,262.2z"/>
			</g>
			<g>
				<path class="st1" d="M609.8,263.6C403.9-318.5,198.1,840.3-7.8,265.9c0-1.1,0-2.1,0-3.2c205.9,572.6,411.8-582.8,617.7-2.5
					C609.8,261.4,609.8,262.5,609.8,263.6z"/>
				<path class="st2" d="M609.8,266.9C403.9-316.9,198.1,845.2-7.8,269.1c0-1.1,0-2.1,0-3.2c205.9,574.4,411.8-584.5,617.7-2.4
					C609.8,264.7,609.8,265.8,609.8,266.9z"/>
				<path class="st3" d="M609.8,270.2C403.9-315.3,198.1,850-7.8,272.3c0-1.1,0-2.1,0-3.2c205.9,576.1,411.8-586.1,617.7-2.2
					C609.8,268,609.8,269.1,609.8,270.2z"/>
				<path class="st4" d="M609.8,273.5c-205.9-587-411.8,581.2-617.7,2c0-1.1,0-2.1,0-3.2c205.9,577.7,411.8-587.6,617.7-2.1
					C609.8,271.3,609.8,272.4,609.8,273.5z"/>
			</g>
			<g>
				<path class="st1" d="M609.8,274.9C403.9-312.7,198.1,856.7-7.8,276.9c0-1.1,0-2.1,0-3.2c205.9,578.4,411.8-588.2,617.7-2
					C609.8,272.7,609.8,273.8,609.8,274.9z"/>
				<path class="st2" d="M609.8,278.3C403.9-310.8,198.1,861.3-7.8,280c0-1.1,0-2.1,0-3.2c205.9,579.9,411.8-589.6,617.7-1.9
					C609.8,276,609.8,277.2,609.8,278.3z"/>
				<path class="st3" d="M609.8,281.6C403.9-308.8,198.1,865.8-7.8,283.2c0-1.1,0-2.1,0-3.2c205.9,581.3,411.8-590.8,617.7-1.8
					C609.8,279.4,609.8,280.5,609.8,281.6z"/>
				<path class="st4" d="M609.8,284.9C403.9-306.7,198.1,870.1-7.8,286.4c0-1.1,0-2.1,0-3.2c205.9,582.6,411.8-592,617.7-1.7
					C609.8,282.7,609.8,283.8,609.8,284.9z"/>
			</g>
			<g>
				<path class="st1" d="M609.8,286.3C403.9-305.8,198.1,872-7.8,287.8c0-1.1,0-2.1,0-3.2c205.9,583.1,411.8-592.5,617.7-1.6
					C609.8,284.1,609.8,285.2,609.8,286.3z"/>
				<path class="st2" d="M609.8,289.6C403.9-303.6,198.1,876.2-7.8,290.9c0-1.1,0-2.1,0-3.2c205.9,584.2,411.8-593.6,617.7-1.5
					C609.8,287.4,609.8,288.5,609.8,289.6z"/>
				<path class="st3" d="M609.8,292.9C403.9-301.2,198.1,880.4-7.8,294.1c0-1.1,0-2.1,0-3.2c205.9,585.3,411.8-594.5,617.7-1.3
					C609.8,290.7,609.8,291.8,609.8,292.9z"/>
				<path class="st4" d="M609.8,296.2c-205.9-595-411.8,588.2-617.7,1.1c0-1.1,0-2.1,0-3.2c205.9,586.3,411.8-595.4,617.7-1.2
					C609.8,294,609.8,295.1,609.8,296.2z"/>
			</g>
			<g>
				<path class="st1" d="M609.8,297.6c-205.9-595.4-411.8,588.5-617.7,1c0-1.1,0-2.1,0-3.2c205.9,586.7,411.8-595.7,617.7-1.1
					C609.8,295.4,609.8,296.5,609.8,297.6z"/>
				<path class="st2" d="M609.8,301C403.9-295.2,198.1,890.1-7.8,301.8c0-1.1,0-2.1,0-3.2c205.9,587.5,411.8-596.4,617.7-1
					C609.8,298.8,609.8,299.9,609.8,301z"/>
				<path class="st3" d="M609.8,304.3C403.9-292.5,198.1,893.9-7.8,305c0-1.1,0-2.1,0-3.2c205.9,588.2,411.8-597,617.7-0.9
					C609.8,302.1,609.8,303.2,609.8,304.3z"/>
				<path class="st4" d="M609.8,307.6C403.9-289.8,198.1,897.6-7.8,308.2c0-1.1,0-2.1,0-3.2c205.9,588.9,411.8-597.5,617.7-0.8
					C609.8,305.4,609.8,306.5,609.8,307.6z"/>
			</g>
			<g>
				<path class="st1" d="M609.8,309C403.9-288.6,198.1,899.2-7.8,309.6c0-1.1,0-2.1,0-3.2c205.9,589.1,411.8-597.7,617.7-0.7
					C609.8,306.8,609.8,307.9,609.8,309z"/>
				<path class="st2" d="M609.8,312.3c-205.9-598-411.8,590.5-617.7,0.4c0-1.1,0-2.1,0-3.2c205.9,589.6,411.8-598.1,617.7-0.6
					C609.8,310.1,609.8,311.2,609.8,312.3z"/>
				<path class="st3" d="M609.8,315.6C403.9-282.7,198.1,906.3-7.8,315.9c0-1.1,0-2.1,0-3.2c205.9,590.1,411.8-598.4,617.7-0.4
					C609.8,313.4,609.8,314.5,609.8,315.6z"/>
				<path class="st4" d="M609.8,318.9C403.9-279.6,198.1,909.7-7.8,319.1c0-1.1,0-2.1,0-3.2c205.9,590.4,411.8-598.6,617.7-0.3
					C609.8,316.7,609.8,317.8,609.8,318.9z"/>
			</g>
			<g>
				<path class="st1" d="M609.8,320.4C403.9-278.2,198.1,911.1-7.8,320.5c0-1.1,0-2.1,0-3.2c205.9,590.5,411.8-598.7,617.7-0.3
					C609.8,318.1,609.8,319.3,609.8,320.4z"/>
				<path class="st2" d="M609.8,323.7C403.9-275,198.1,914.4-7.8,323.7c0-1.1,0-2.1,0-3.2c205.9,590.7,411.8-598.7,617.7-0.1
					C609.8,321.5,609.8,322.6,609.8,323.7z"/>
				<path class="st3" d="M609.8,327C403.9-271.7,198.1,917.6-7.8,326.8c0-1.1,0-2.1,0-3.2c205.9,590.8,411.8-598.7,617.7,0
					C609.8,324.8,609.8,325.9,609.8,327z"/>
				<path class="st4" d="M609.8,330.3C403.9-268.3,198.1,920.7-7.8,330c0-1.1,0-2.1,0-3.2c205.9,590.8,411.8-598.6,617.7,0.1
					C609.8,328.1,609.8,329.2,609.8,330.3z"/>
			</g>
			<g>
				<path class="st1" d="M609.8,331.7C403.9-266.8,198.1,922-7.8,331.4c0-1.1,0-2.1,0-3.2c205.9,590.7,411.8-598.5,617.7,0.2
					C609.8,329.5,609.8,330.6,609.8,331.7z"/>
				<path class="st2" d="M609.8,335C403.9-263.3,198.1,924.9-7.8,334.6c0-1.1,0-2.1,0-3.2c205.9,590.6,411.8-598.2,617.7,0.3
					C609.8,332.8,609.8,333.9,609.8,335z"/>
				<path class="st3" d="M609.8,338.3C403.9-259.6,198.1,927.8-7.8,337.7c0-1.1,0-2.1,0-3.2c205.9,590.3,411.8-597.8,617.7,0.4
					C609.8,336.1,609.8,337.2,609.8,338.3z"/>
				<path class="st4" d="M609.8,341.6C403.9-255.9,198.1,930.5-7.8,340.9c0-1.1,0-2.1,0-3.2c205.9,590,411.8-597.4,617.7,0.6
					C609.8,339.4,609.8,340.5,609.8,341.6z"/>
			</g>
			<g>
				<path class="st1" d="M609.8,343.1C403.9-254.2,198.1,931.7-7.8,342.3c0-1.1,0-2.1,0-3.2C198.1,929,403.9-258,609.8,339.8
					C609.8,340.9,609.8,342,609.8,343.1z"/>
				<path class="st2" d="M609.8,346.4C403.9-250.4,198.1,934.3-7.8,345.5c0-1.1,0-2.1,0-3.2c205.9,589.4,411.8-596.5,617.7,0.8
					C609.8,344.2,609.8,345.3,609.8,346.4z"/>
				<path class="st3" d="M609.8,349.7c-205.9-596.1-411.8,587.2-617.7-1c0-1.1,0-2.1,0-3.2c205.9,588.8,411.8-595.8,617.7,0.9
					C609.8,347.5,609.8,348.6,609.8,349.7z"/>
				<path class="st4" d="M609.8,353C403.9-242.3,198.1,939.3-7.8,351.8c0-1.1,0-2.1,0-3.2c205.9,588.2,411.8-595,617.7,1
					C609.8,350.8,609.8,351.9,609.8,353z"/>
			</g>
			<g>
				<path class="st1" d="M609.8,354.4C403.9-240.5,198.1,940.3-7.8,353.2c0-1.1,0-2.1,0-3.2c205.9,587.9,411.8-594.7,617.7,1.1
					C609.8,352.2,609.8,353.3,609.8,354.4z"/>
				<path class="st2" d="M609.8,357.7C403.9-236.3,198.1,942.6-7.8,356.4c0-1.1,0-2.1,0-3.2c205.9,587.1,411.8-593.7,617.7,1.2
					C609.8,355.5,609.8,356.6,609.8,357.7z"/>
				<path class="st3" d="M609.8,361C403.9-232,198.1,944.8-7.8,359.6c0-1.1,0-2.1,0-3.2c205.9,586.2,411.8-592.7,617.7,1.3
					C609.8,358.8,609.8,359.9,609.8,361z"/>
				<path class="st4" d="M609.8,364.3c-205.9-592-411.8,582.5-617.7-1.6c0-1.1,0-2.1,0-3.2C198.1,944.8,403.9-232,609.8,361
					C609.8,362.1,609.8,363.2,609.8,364.3z"/>
			</g>
			<g>
				<path class="st1" d="M609.8,365.8c-205.9-591.5-411.8,582-617.7-1.7c0-1.1,0-2.1,0-3.2c205.9,584.8,411.8-591.1,617.7,1.5
					C609.8,363.6,609.8,364.7,609.8,365.8z"/>
				<path class="st2" d="M609.8,369.1C403.9-221.2,198.1,949.7-7.8,367.3c0-1.1,0-2.1,0-3.2c205.9,583.7,411.8-589.8,617.7,1.7
					C609.8,366.9,609.8,368,609.8,369.1z"/>
				<path class="st3" d="M609.8,372.4C403.9-216.6,198.1,951.6-7.8,370.5c0-1.1,0-2.1,0-3.2c205.9,582.4,411.8-588.5,617.7,1.8
					C609.8,370.2,609.8,371.3,609.8,372.4z"/>
				<path class="st4" d="M609.8,375.7c-205.9-587.5-411.8,577.7-617.7-2c0-1.1,0-2.1,0-3.2c205.9,581.1,411.8-587,617.7,1.9
					C609.8,373.5,609.8,374.6,609.8,375.7z"/>
			</g>
			<g>
				<path class="st1" d="M609.8,377.1C403.9-209.8,198.1,954.1-7.8,375c0-1.1,0-2.1,0-3.2c205.9,580.6,411.8-586.4,617.7,2
					C609.8,374.9,609.8,376,609.8,377.1z"/>
				<path class="st2" d="M609.8,380.4C403.9-204.9,198.1,955.8-7.8,378.2c0-1.1,0-2.1,0-3.2c205.9,579.1,411.8-584.8,617.7,2.1
					C609.8,378.2,609.8,379.3,609.8,380.4z"/>
				<path class="st3" d="M609.8,383.7C403.9-199.9,198.1,957.3-7.8,381.4c0-1.1,0-2.1,0-3.2c205.9,577.6,411.8-583.1,617.7,2.2
					C609.8,381.5,609.8,382.6,609.8,383.7z"/>
				<path class="st4" d="M609.8,387C403.9-194.9,198.1,958.8-7.8,384.6c0-1.1,0-2.1,0-3.2c205.9,576,411.8-581.3,617.7,2.4
					C609.8,384.8,609.8,385.9,609.8,387z"/>
			</g>
			<g>
				<path class="st1" d="M609.8,388.5C403.9-192.7,198.1,959.4-7.8,385.9c0-1.1,0-2.1,0-3.2c205.9,575.2,411.8-580.5,617.7,2.4
					C609.8,386.3,609.8,387.4,609.8,388.5z"/>
				<path class="st2" d="M609.8,391.8C403.9-187.5,198.1,960.7-7.8,389.1c0-1.1,0-2.1,0-3.2c205.9,573.5,411.8-578.6,617.7,2.5
					C609.8,389.6,609.8,390.7,609.8,391.8z"/>
				<path class="st3" d="M609.8,395.1C403.9-182.2,198.1,961.9-7.8,392.3c0-1.1,0-2.1,0-3.2c205.9,571.6,411.8-576.6,617.7,2.7
					C609.8,392.9,609.8,394,609.8,395.1z"/>
				<path class="st4" d="M609.8,398.4C403.9-176.8,198.1,963.1-7.8,395.5c0-1.1,0-2.1,0-3.2c205.9,569.7,411.8-574.5,617.7,2.8
					C609.8,396.2,609.8,397.3,609.8,398.4z"/>
			</g>
			<g>
				<path class="st1" d="M609.8,399.8c-205.9-574.3-411.8,563.7-617.7-3c0-1.1,0-2.1,0-3.2c205.9,568.8,411.8-573.6,617.7,2.9
					C609.8,397.6,609.8,398.7,609.8,399.8z"/>
				<path class="st2" d="M609.8,403.1C403.9-169,198.1,964.5-7.8,400c0-1.1,0-2.1,0-3.2c205.9,566.7,411.8-571.3,617.7,3
					C609.8,400.9,609.8,402,609.8,403.1z"/>
				<path class="st3" d="M609.8,406.4c-205.9-569.8-411.8,559-617.7-3.2c0-1.1,0-2.1,0-3.2c205.9,564.5,411.8-569,617.7,3.1
					C609.8,404.2,609.8,405.3,609.8,406.4z"/>
				<path class="st4" d="M609.8,409.7C403.9-157.6,198.1,966.3-7.8,406.4c0-1.1,0-2.1,0-3.2c205.9,562.3,411.8-566.5,617.7,3.2
					C609.8,407.5,609.8,408.6,609.8,409.7z"/>
			</g>
			<g>
				<path class="st1" d="M609.8,411.2C403.9-155.1,198.1,966.6-7.8,407.7c0-1.1,0-2.1,0-3.2c205.9,561.2,411.8-565.5,617.7,3.3
					C609.8,409,609.8,410.1,609.8,411.2z"/>
				<path class="st2" d="M609.8,414.5C403.9-149.3,198.1,967.2-7.8,410.9c0-1.1,0-2.1,0-3.2c205.9,558.8,411.8-562.9,617.7,3.4
					C609.8,412.3,609.8,413.4,609.8,414.5z"/>
				<path class="st3" d="M609.8,417.8c-205.9-561.1-411.8,550-617.7-3.7c0-1.1,0-2.1,0-3.2c205.9,556.3,411.8-560.2,617.7,3.6
					C609.8,415.6,609.8,416.7,609.8,417.8z"/>
				<path class="st4" d="M609.8,421.1C403.9-137.3,198.1,968.3-7.8,417.3c0-1.1,0-2.1,0-3.2c205.9,553.7,411.8-557.5,617.7,3.7
					C609.8,418.9,609.8,420,609.8,421.1z"/>
			</g>
			<g>
				<path class="st1" d="M609.8,422.5c-205.9-557.2-411.8,546-617.7-3.9c0-1.1,0-2.1,0-3.2c205.9,552.6,411.8-556.2,617.7,3.7
					C609.8,420.3,609.8,421.4,609.8,422.5z"/>
				<path class="st2" d="M609.8,425.8c-205.9-554.3-411.8,543-617.7-4c0-1.1,0-2.1,0-3.2c205.9,549.8,411.8-553.3,617.7,3.9
					C609.8,423.6,609.8,424.7,609.8,425.8z"/>
				<path class="st3" d="M609.8,429.1C403.9-122.2,198.1,969.1-7.8,425c0-1.1,0-2.1,0-3.2c205.9,547,411.8-550.3,617.7,4
					C609.8,426.9,609.8,428,609.8,429.1z"/>
				<path class="st4" d="M609.8,432.4C403.9-115.9,198.1,969.3-7.8,428.2c0-1.1,0-2.1,0-3.2c205.9,544.1,411.8-547.2,617.7,4.1
					C609.8,430.2,609.8,431.3,609.8,432.4z"/>
			</g>
			<g>
				<path class="st1" d="M609.8,433.9c-205.9-547-411.8,535.4-617.7-4.3c0-1.1,0-2.1,0-3.2c205.9,542.8,411.8-545.9,617.7,4.2
					C609.8,431.7,609.8,432.8,609.8,433.9z"/>
				<path class="st2" d="M609.8,437.2C403.9-106.6,198.1,969.3-7.8,432.7c0-1.1,0-2.1,0-3.2c205.9,539.7,411.8-542.6,617.7,4.3
					C609.8,435,609.8,436.1,609.8,437.2z"/>
				<path class="st3" d="M609.8,440.5C403.9-100,198.1,969.3-7.8,435.9c0-1.1,0-2.1,0-3.2c205.9,536.6,411.8-539.3,617.7,4.5
					C609.8,438.3,609.8,439.4,609.8,440.5z"/>
				<path class="st4" d="M609.8,443.8C403.9-93.3,198.1,969.1-7.8,439.1c0-1.1,0-2.1,0-3.2c205.9,533.3,411.8-535.9,617.7,4.6
					C609.8,441.6,609.8,442.7,609.8,443.8z"/>
			</g>
			<g>
				<path class="st1" d="M609.8,445.2C403.9-90.4,198.1,969-7.8,440.5c0-1.1,0-2.1,0-3.2c205.9,531.9,411.8-534.4,617.7,4.6
					C609.8,443,609.8,444.1,609.8,445.2z"/>
				<path class="st2" d="M609.8,448.5C403.9-83.5,198.1,968.7-7.8,443.6c0-1.1,0-2.1,0-3.2C198.1,969,403.9-90.4,609.8,445.2
					C609.8,446.3,609.8,447.4,609.8,448.5z"/>
				<path class="st3" d="M609.8,451.8c-205.9-528.5-411.8,516.5-617.7-5c0-1.1,0-2.1,0-3.2c205.9,525.1,411.8-527.2,617.7,4.9
					C609.8,449.6,609.8,450.7,609.8,451.8z"/>
				<path class="st4" d="M609.8,455.2C403.9-69.6,198.1,967.8-7.8,450c0-1.1,0-2.1,0-3.2c205.9,521.5,411.8-523.4,617.7,5
					C609.8,452.9,609.8,454,609.8,455.2z"/>
			</g>
			<g>
				<path class="st1" d="M609.8,456.6c-205.9-523.1-411.8,511-617.7-5.2c0-1.1,0-2.1,0-3.2c205.9,519.9,411.8-521.8,617.7,5.1
					C609.8,454.4,609.8,455.5,609.8,456.6z"/>
				<path class="st2" d="M609.8,459.9C403.9-59.4,198.1,967-7.8,454.5c0-1.1,0-2.1,0-3.2c205.9,516.2,411.8-517.9,617.7,5.2
					C609.8,457.7,609.8,458.8,609.8,459.9z"/>
				<path class="st3" d="M609.8,463.2c-205.9-515.3-411.8,503-617.7-5.5c0-1.1,0-2.1,0-3.2C198.1,967,403.9-59.4,609.8,459.9
					C609.8,461,609.8,462.1,609.8,463.2z"/>
				<path class="st4" d="M609.8,466.5C403.9-44.8,198.1,965.4-7.8,460.9c0-1.1,0-2.1,0-3.2c205.9,508.5,411.8-509.8,617.7,5.5
					C609.8,464.3,609.8,465.4,609.8,466.5z"/>
			</g>
			<g>
				<path class="st1" d="M609.8,467.9C403.9-41.6,198.1,965-7.8,462.3c0-1.1,0-2.1,0-3.2c205.9,506.8,411.8-508,617.7,5.5
					C609.8,465.7,609.8,466.8,609.8,467.9z"/>
				<path class="st2" d="M609.8,471.2C403.9-34.1,198.1,964.1-7.8,465.5c0-1.1,0-2.1,0-3.2C198.1,965,403.9-41.6,609.8,467.9
					C609.8,469,609.8,470.1,609.8,471.2z"/>
				<path class="st3" d="M609.8,474.5c-205.9-501-411.8,488.5-617.7-5.9c0-1.1,0-2.1,0-3.2c205.9,498.6,411.8-499.5,617.7,5.8
					C609.8,472.3,609.8,473.4,609.8,474.5z"/>
				<path class="st4" d="M609.8,477.9c-205.9-496.7-411.8,484.1-617.7-6c0-1.1,0-2.1,0-3.2c205.9,494.4,411.8-495.1,617.7,5.9
					C609.8,475.7,609.8,476.8,609.8,477.9z"/>
			</g>
			<g>
				<path class="st1" d="M609.8,479.3C403.9-15.5,198.1,961.4-7.8,473.2c0-1.1,0-2.1,0-3.2c205.9,492.6,411.8-493.2,617.7,6
					C609.8,477.1,609.8,478.2,609.8,479.3z"/>
				<path class="st2" d="M609.8,482.6C403.9-7.6,198.1,960.1-7.8,476.4c0-1.1,0-2.1,0-3.2c205.9,488.2,411.8-488.6,617.7,6.1
					C609.8,480.4,609.8,481.5,609.8,482.6z"/>
				<path class="st3" d="M609.8,485.9C403.9,0.3,198.1,958.8-7.8,479.5c0-1.1,0-2.1,0-3.2c205.9,483.8,411.8-484,617.7,6.2
					C609.8,483.7,609.8,484.8,609.8,485.9z"/>
				<path class="st4" d="M609.8,489.2C403.9,8.3,198.1,957.3-7.8,482.7c0-1.1,0-2.1,0-3.2c205.9,479.2,411.8-479.3,617.7,6.4
					C609.8,487,609.8,488.1,609.8,489.2z"/>
			</g>
			<g>
				<path class="st1" d="M609.8,490.6c-205.9-478.9-411.8,466-617.7-6.5c0-1.1,0-2.1,0-3.2c205.9,477.2,411.8-477.2,617.7,6.4
					C609.8,488.4,609.8,489.5,609.8,490.6z"/>
				<path class="st2" d="M609.8,493.9C403.9,19.9,198.1,955-7.8,487.3c0-1.1,0-2.1,0-3.2c205.9,472.6,411.8-472.3,617.7,6.5
					C609.8,491.7,609.8,492.8,609.8,493.9z"/>
				<path class="st3" d="M609.8,497.3C403.9,28.2,198.1,953.4-7.8,490.4c0-1.1,0-2.1,0-3.2C198.1,955,403.9,19.9,609.8,493.9
					C609.8,495,609.8,496.1,609.8,497.3z"/>
				<path class="st4" d="M609.8,500.6c-205.9-464.1-411.8,451-617.7-6.9c0-1.1,0-2.1,0-3.2c205.9,462.9,411.8-462.3,617.7,6.8
					C609.8,498.4,609.8,499.5,609.8,500.6z"/>
			</g>
			<g>
				<path class="st1" d="M609.8,502C403.9,40.1,198.1,950.8-7.8,495c0-1.1,0-2.1,0-3.2c205.9,460.8,411.8-460.1,617.7,6.9
					C609.8,499.8,609.8,500.9,609.8,502z"/>
				<path class="st2" d="M609.8,505.3C403.9,48.6,198.1,948.9-7.8,498.2c0-1.1,0-2.1,0-3.2c205.9,455.8,411.8-454.9,617.7,7
					C609.8,503.1,609.8,504.2,609.8,505.3z"/>
				<path class="st3" d="M609.8,508.6C403.9,57.2,198.1,946.8-7.8,501.4c0-1.1,0-2.1,0-3.2c205.9,450.7,411.8-449.6,617.7,7.1
					C609.8,506.4,609.8,507.5,609.8,508.6z"/>
				<path class="st4" d="M609.8,511.9C403.9,65.8,198.1,944.7-7.8,504.5c0-1.1,0-2.1,0-3.2c205.9,445.5,411.8-444.2,617.7,7.3
					C609.8,509.7,609.8,510.8,609.8,511.9z"/>
			</g>
			<g>
				<path class="st1" d="M609.8,513.3C403.9,69.6,198.1,943.8-7.8,505.9c0-1.1,0-2.1,0-3.2C198.1,945.9,403.9,60.9,609.8,510
					C609.8,511.1,609.8,512.2,609.8,513.3z"/>
				<path class="st2" d="M609.8,516.6C403.9,78.4,198.1,941.5-7.8,509.1c0-1.1,0-2.1,0-3.2c205.9,437.9,411.8-436.3,617.7,7.4
					C609.8,514.4,609.8,515.5,609.8,516.6z"/>
				<path class="st3" d="M609.8,520C403.9,87.3,198.1,939.2-7.8,512.3c0-1.1,0-2.1,0-3.2c205.9,432.5,411.8-430.7,617.7,7.6
					C609.8,517.8,609.8,518.9,609.8,520z"/>
				<path class="st4" d="M609.8,523.3c-205.9-427-411.8,413.5-617.7-7.8c0-1.1,0-2.1,0-3.2C198.1,939.2,403.9,87.3,609.8,520
					C609.8,521.1,609.8,522.2,609.8,523.3z"/>
			</g>
			<g>
				<path class="st1" d="M609.8,524.7c-205.9-424.5-411.8,411-617.7-7.9c0-1.1,0-2.1,0-3.2c205.9,424.5,411.8-422.4,617.7,7.8
					C609.8,522.5,609.8,523.6,609.8,524.7z"/>
				<path class="st2" d="M609.8,528C403.9,109.4,198.1,933.1-7.8,520c0-1.1,0-2.1,0-3.2c205.9,418.9,411.8-416.6,617.7,7.9
					C609.8,525.8,609.8,526.9,609.8,528z"/>
				<path class="st3" d="M609.8,531.3C403.9,118.6,198.1,930.5-7.8,523.2c0-1.1,0-2.1,0-3.2c205.9,413.1,411.8-410.6,617.7,8
					C609.8,529.1,609.8,530.2,609.8,531.3z"/>
				<path class="st4" d="M609.8,534.6C403.9,127.9,198.1,927.7-7.8,526.3c0-1.1,0-2.1,0-3.2c205.9,407.3,411.8-404.6,617.7,8.1
					C609.8,532.4,609.8,533.5,609.8,534.6z"/>
			</g>
			<g>
				<path class="st1" d="M609.8,536C403.9,132,198.1,926.5-7.8,527.7c0-1.1,0-2.1,0-3.2c205.9,404.7,411.8-401.9,617.7,8.2
					C609.8,533.8,609.8,534.9,609.8,536z"/>
				<path class="st2" d="M609.8,539.4C403.9,141.4,198.1,923.6-7.8,530.9c0-1.1,0-2.1,0-3.2C198.1,926.5,403.9,132,609.8,536
					C609.8,537.1,609.8,538.3,609.8,539.4z"/>
				<path class="st3" d="M609.8,542.7C403.9,151,198.1,920.6-7.8,534.1c0-1.1,0-2.1,0-3.2c205.9,392.7,411.8-389.5,617.7,8.5
					C609.8,540.5,609.8,541.6,609.8,542.7z"/>
				<path class="st4" d="M609.8,546C403.9,160.6,198.1,917.5-7.8,537.3c0-1.1,0-2.1,0-3.2c205.9,386.5,411.8-383.1,617.7,8.6
					C609.8,543.8,609.8,544.9,609.8,546z"/>
			</g>
			<g>
				<path class="st1" d="M609.8,547.4C403.9,164.8,198.1,916.2-7.8,538.6c0-1.1,0-2.1,0-3.2c205.9,383.8,411.8-380.3,617.7,8.6
					C609.8,545.2,609.8,546.3,609.8,547.4z"/>
				<path class="st2" d="M609.8,550.7C403.9,174.6,198.1,912.9-7.8,541.8c0-1.1,0-2.1,0-3.2c205.9,377.5,411.8-373.8,617.7,8.8
					C609.8,548.5,609.8,549.6,609.8,550.7z"/>
				<path class="st3" d="M609.8,554C403.9,184.5,198.1,909.6-7.8,545c0-1.1,0-2.1,0-3.2c205.9,371.1,411.8-367.2,617.7,8.9
					C609.8,551.8,609.8,552.9,609.8,554z"/>
				<path class="st4" d="M609.8,557.3C403.9,194.5,198.1,906.2-7.8,548.2c0-1.1,0-2.1,0-3.2c205.9,364.7,411.8-360.5,617.7,9
					C609.8,555.1,609.8,556.2,609.8,557.3z"/>
			</g>
			<g>
				<path class="st1" d="M609.8,558.8c-205.9-359.9-411.8,346-617.7-9.2c0-1.1,0-2.1,0-3.2c205.9,361.8,411.8-357.5,617.7,9.1
					C609.8,556.5,609.8,557.6,609.8,558.8z"/>
				<path class="st2" d="M609.8,562.1C403.9,208.9,198.1,901.2-7.8,552.7c0-1.1,0-2.1,0-3.2c205.9,355.2,411.8-350.7,617.7,9.2
					C609.8,559.9,609.8,561,609.8,562.1z"/>
				<path class="st3" d="M609.8,565.4C403.9,219.2,198.1,897.5-7.8,555.9c0-1.1,0-2.1,0-3.2c205.9,348.5,411.8-343.8,617.7,9.3
					C609.8,563.2,609.8,564.3,609.8,565.4z"/>
				<path class="st4" d="M609.8,568.7C403.9,229.5,198.1,893.8-7.8,559.1c0-1.1,0-2.1,0-3.2c205.9,341.7,411.8-336.7,617.7,9.5
					C609.8,566.5,609.8,567.6,609.8,568.7z"/>
			</g>
			<g>
				<path class="st1" d="M609.8,570.1C403.9,234,198.1,892.2-7.8,560.4c0-1.1,0-2.1,0-3.2c205.9,338.7,411.8-333.7,617.7,9.5
					C609.8,567.9,609.8,569,609.8,570.1z"/>
				<path class="st2" d="M609.8,573.4c-205.9-329-411.8,314.9-617.7-9.8c0-1.1,0-2.1,0-3.2c205.9,331.7,411.8-326.5,617.7,9.7
					C609.8,571.2,609.8,572.3,609.8,573.4z"/>
				<path class="st3" d="M609.8,576.7C403.9,254.9,198.1,884.4-7.8,566.8c0-1.1,0-2.1,0-3.2c205.9,324.7,411.8-319.2,617.7,9.8
					C609.8,574.5,609.8,575.6,609.8,576.7z"/>
				<path class="st4" d="M609.8,580C403.9,265.6,198.1,880.3-7.8,570c0-1.1,0-2.1,0-3.2c205.9,317.6,411.8-311.9,617.7,9.9
					C609.8,577.8,609.8,578.9,609.8,580z"/>
			</g>
			<g>
				<path class="st1" d="M609.8,581.5C403.9,270.2,198.1,878.5-7.8,571.3c0-1.1,0-2.1,0-3.2c205.9,314.4,411.8-308.6,617.7,10
					C609.8,579.2,609.8,580.4,609.8,581.5z"/>
				<path class="st2" d="M609.8,584.8C403.9,281,198.1,874.3-7.8,574.5c0-1.1,0-2.1,0-3.2c205.9,307.2,411.8-301.1,617.7,10.1
					C609.8,582.6,609.8,583.7,609.8,584.8z"/>
				<path class="st3" d="M609.8,588.1C403.9,291.9,198.1,870-7.8,577.7c0-1.1,0-2.1,0-3.2C198.1,874.3,403.9,281,609.8,584.8
					C609.8,585.9,609.8,587,609.8,588.1z"/>
				<path class="st4" d="M609.8,591.4C403.9,302.8,198.1,865.7-7.8,580.9c0-1.1,0-2.1,0-3.2C198.1,870,403.9,291.9,609.8,588.1
					C609.8,589.2,609.8,590.3,609.8,591.4z"/>
			</g>
			<g>
				<path class="st1" d="M609.8,592.8C403.9,307.6,198.1,863.7-7.8,582.3c0-1.1,0-2.1,0-3.2c205.9,289.1,411.8-282.5,617.7,10.4
					C609.8,590.6,609.8,591.7,609.8,592.8z"/>
				<path class="st2" d="M609.8,596.1C403.9,318.7,198.1,859.2-7.8,585.4c0-1.1,0-2.1,0-3.2c205.9,281.5,411.8-274.7,617.7,10.6
					C609.8,593.9,609.8,595,609.8,596.1z"/>
				<path class="st3" d="M609.8,599.4C403.9,329.9,198.1,854.6-7.8,588.6c0-1.1,0-2.1,0-3.2c205.9,273.8,411.8-266.7,617.7,10.7
					C609.8,597.2,609.8,598.3,609.8,599.4z"/>
				<path class="st4" d="M609.8,602.7C403.9,341.2,198.1,849.9-7.8,591.8c0-1.1,0-2.1,0-3.2c205.9,266,411.8-258.7,617.7,10.8
					C609.8,600.5,609.8,601.6,609.8,602.7z"/>
			</g>
			<g>
				<path class="st1" d="M609.8,604.2c-205.9-258.1-411.8,243.7-617.7-11c0-1.1,0-2.1,0-3.2c205.9,262.6,411.8-255.2,617.7,10.9
					C609.8,602,609.8,603.1,609.8,604.2z"/>
				<path class="st2" d="M609.8,607.5C403.9,357.5,198.1,843-7.8,596.3c0-1.1,0-2.1,0-3.2c205.9,254.7,411.8-247.1,617.7,11
					C609.8,605.3,609.8,606.4,609.8,607.5z"/>
				<path class="st3" d="M609.8,610.8C403.9,369.1,198.1,838.1-7.8,599.5c0-1.1,0-2.1,0-3.2C198.1,843,403.9,357.5,609.8,607.5
					C609.8,608.6,609.8,609.7,609.8,610.8z"/>
				<path class="st4" d="M609.8,614.1c-205.9-233.4-411.8,219-617.7-11.4c0-1.1,0-2.1,0-3.2c205.9,238.6,411.8-230.5,617.7,11.3
					C609.8,611.9,609.8,613,609.8,614.1z"/>
			</g>
			<g>
				<path class="st1" d="M609.8,615.5C403.9,385.7,198.1,830.9-7.8,604.1c0-1.1,0-2.1,0-3.2c205.9,235,411.8-226.8,617.7,11.3
					C609.8,613.3,609.8,614.4,609.8,615.5z"/>
				<path class="st2" d="M609.8,618.8C403.9,397.5,198.1,825.7-7.8,607.2c0-1.1,0-2.1,0-3.2c205.9,226.8,411.8-218.3,617.7,11.4
					C609.8,616.6,609.8,617.7,609.8,618.8z"/>
				<path class="st3" d="M609.8,622.1C403.9,409.3,198.1,820.4-7.8,610.4c0-1.1,0-2.1,0-3.2c205.9,218.4,411.8-209.8,617.7,11.6
					C609.8,619.9,609.8,621,609.8,622.1z"/>
				<path class="st4" d="M609.8,625.4C403.9,421.3,198.1,815.1-7.8,613.6c0-1.1,0-2.1,0-3.2c205.9,210,411.8-201.1,617.7,11.7
					C609.8,623.2,609.8,624.3,609.8,625.4z"/>
			</g>
			<g>
				<path class="st1" d="M609.8,626.9C403.9,426.5,198.1,812.7-7.8,615c0-1.1,0-2.1,0-3.2c205.9,206.3,411.8-197.3,617.7,11.8
					C609.8,624.7,609.8,625.8,609.8,626.9z"/>
				<path class="st2" d="M609.8,630.2c-205.9-191.6-411.8,177.1-617.7-12c0-1.1,0-2.1,0-3.2c205.9,197.8,411.8-188.5,617.7,11.9
					C609.8,628,609.8,629.1,609.8,630.2z"/>
				<path class="st3" d="M609.8,633.5C403.9,450.8,198.1,801.7-7.8,621.3c0-1.1,0-2.1,0-3.2c205.9,189.1,411.8-179.6,617.7,12
					C609.8,631.3,609.8,632.4,609.8,633.5z"/>
				<path class="st4" d="M609.8,636.8C403.9,463,198.1,796-7.8,624.5c0-1.1,0-2.1,0-3.2c205.9,180.3,411.8-170.6,617.7,12.1
					C609.8,634.6,609.8,635.7,609.8,636.8z"/>
			</g>
			<g>
				<path class="st1" d="M609.8,638.2C403.9,468.4,198.1,793.5-7.8,625.9c0-1.1,0-2.1,0-3.2c205.9,176.5,411.8-166.6,617.7,12.2
					C609.8,636,609.8,637.1,609.8,638.2z"/>
				<path class="st2" d="M609.8,641.5C403.9,480.8,198.1,787.7-7.8,629.1c0-1.1,0-2.1,0-3.2c205.9,167.6,411.8-157.5,617.7,12.3
					C609.8,639.3,609.8,640.4,609.8,641.5z"/>
				<path class="st3" d="M609.8,644.8c-205.9-151.5-411.8,137-617.7-12.6c0-1.1,0-2.1,0-3.2c205.9,158.6,411.8-148.3,617.7,12.5
					C609.8,642.6,609.8,643.7,609.8,644.8z"/>
				<path class="st4" d="M609.8,648.1C403.9,505.9,198.1,775.8-7.8,635.4c0-1.1,0-2.1,0-3.2c205.9,149.6,411.8-138.9,617.7,12.6
					C609.8,645.9,609.8,647,609.8,648.1z"/>
			</g>
			<g>
				<path class="st1" d="M609.8,649.6C403.9,511.4,198.1,773.2-7.8,636.8c0-1.1,0-2.1,0-3.2c205.9,145.6,411.8-134.9,617.7,12.7
					C609.8,647.4,609.8,648.5,609.8,649.6z"/>
				<path class="st2" d="M609.8,652.9C403.9,524.1,198.1,767-7.8,640c0-1.1,0-2.1,0-3.2c205.9,136.4,411.8-125.4,617.7,12.8
					C609.8,650.7,609.8,651.8,609.8,652.9z"/>
				<path class="st3" d="M609.8,656.2C403.9,537,198.1,760.8-7.8,643.1c0-1.1,0-2.1,0-3.2C198.1,767,403.9,524.1,609.8,652.9
					C609.8,654,609.8,655.1,609.8,656.2z"/>
				<path class="st4" d="M609.8,659.5c-205.9-109.6-411.8,95-617.7-13.2c0-1.1,0-2.1,0-3.2c205.9,117.7,411.8-106.2,617.7,13
					C609.8,657.3,609.8,658.4,609.8,659.5z"/>
			</g>
			<g>
				<path class="st1" d="M609.8,660.9C403.9,555.5,198.1,751.7-7.8,647.7c0-1.1,0-2.1,0-3.2c205.9,113.6,411.8-101.9,617.7,13.1
					C609.8,658.7,609.8,659.8,609.8,660.9z"/>
				<path class="st2" d="M609.8,664.2c-205.9-95.6-411.8,81-617.7-13.4c0-1.1,0-2.1,0-3.2c205.9,104,411.8-92.1,617.7,13.2
					C609.8,662,609.8,663.1,609.8,664.2z"/>
				<path class="st3" d="M609.8,667.5c-205.9-85.7-411.8,71.2-617.7-13.5c0-1.1,0-2.1,0-3.2c205.9,94.4,411.8-82.2,617.7,13.4
					C609.8,665.3,609.8,666.4,609.8,667.5z"/>
				<path class="st4" d="M609.8,670.8c-205.9-75.8-411.8,61.2-617.7-13.6c0-1.1,0-2.1,0-3.2c205.9,84.7,411.8-72.3,617.7,13.5
					C609.8,668.6,609.8,669.7,609.8,670.8z"/>
			</g>
			<g>
				<path class="st1" d="M609.8,672.3c-205.9-71.4-411.8,56.9-617.7-13.7c0-1.1,0-2.1,0-3.2c205.9,80.4,411.8-67.9,617.7,13.5
					C609.8,670.1,609.8,671.2,609.8,672.3z"/>
				<path class="st2" d="M609.8,675.6c-205.9-61.4-411.8,46.8-617.7-13.8c0-1.1,0-2.1,0-3.2c205.9,70.6,411.8-57.8,617.7,13.7
					C609.8,673.4,609.8,674.5,609.8,675.6z"/>
				<path class="st3" d="M609.8,678.9C403.9,627.7,198.1,715.5-7.8,665c0-1.1,0-2.1,0-3.2c205.9,60.6,411.8-47.6,617.7,13.8
					C609.8,676.7,609.8,677.8,609.8,678.9z"/>
				<path class="st4" d="M609.8,682.2c-205.9-40.9-411.8,26.3-617.7-14.1c0-1.1,0-2.1,0-3.2c205.9,50.5,411.8-37.2,617.7,13.9
					C609.8,680,609.8,681.1,609.8,682.2z"/>
			</g>
			<g>
				<path class="st1" d="M609.8,683.6c-205.9-36.4-411.8,21.9-617.7-14.1c0-1.1,0-2.1,0-3.2c205.9,46.2,411.8-32.7,617.7,14
					C609.8,681.4,609.8,682.5,609.8,683.6z"/>
				<path class="st2" d="M609.8,686.9c-205.9-26-411.8,11.4-617.7-14.2c0-1.1,0-2.1,0-3.2c205.9,36,411.8-22.3,617.7,14.1
					C609.8,684.7,609.8,685.8,609.8,686.9z"/>
				<path class="st3" d="M609.8,690.2c-205.9-15.5-411.8,0.9-617.7-14.4c0-1.1,0-2.1,0-3.2c205.9,25.7,411.8-11.7,617.7,14.2
					C609.8,688,609.8,689.1,609.8,690.2z"/>
				<path class="st4" d="M609.8,693.5c-205.9-4.8-411.8-9.7-617.7-14.5c0-1.1,0-2.1,0-3.2c205.9,15.3,411.8-1.1,617.7,14.4
					C609.8,691.3,609.8,692.4,609.8,693.5z"/>
			</g>
		</g>
	</g>
</g>
<path class="st5" d="M301,5C137.5,5,5,137.5,5,301s132.5,296,296,296s296-132.5,296-296S464.5,5,301,5z M301,580.7
	C146.5,580.7,21.3,455.5,21.3,301S146.5,21.3,301,21.3S580.7,146.5,580.7,301S455.5,580.7,301,580.7z"/>
<linearGradient id="SVGID_00000091010433774305018980000001044187237257564303_" gradientUnits="userSpaceOnUse" x1="5" y1="301" x2="597" y2="301" gradientTransform="matrix(0.9956 -9.380133e-02 9.380133e-02 0.9956 -26.9071 29.5613)">
	<stop  offset="0" style="stop-color:#FFFDF0;stop-opacity:0.1"/>
	<stop  offset="0.2304" style="stop-color:#010012"/>
	<stop  offset="0.4763" style="stop-color:#010012;stop-opacity:0"/>
	<stop  offset="0.7093" style="stop-color:#010012"/>
	<stop  offset="0.8658" style="stop-color:#010012;stop-opacity:0"/>
	<stop  offset="1" style="stop-color:#010012"/>
</linearGradient>
<path style="fill:url(#SVGID_00000091010433774305018980000001044187237257564303_);" d="M273.2,6.3C110.5,21.6-9,166,6.3,328.8
	S166,611,328.8,595.7C491.5,580.4,611,436,595.7,273.2C580.4,110.5,436-9,273.2,6.3z M327.2,579.5C173.4,593.9,37,481,22.5,327.2
	S121,37,274.8,22.5S565,121,579.5,274.8S481,565,327.2,579.5z"/>
</svg>
