<?xml version="1.0" encoding="utf-8"?>
<!-- Generator: Adobe Illustrator 27.5.0, SVG Export Plug-In . SVG Version: 6.00 Build 0)  -->
<svg version="1.1"
	 id="svg2" xmlns:sodipodi="http://sodipodi.sourceforge.net/DTD/sodipodi-0.dtd" xmlns:svg="http://www.w3.org/2000/svg" xmlns:rdf="http://www.w3.org/1999/02/22-rdf-syntax-ns#" xmlns:cc="http://creativecommons.org/ns#" xmlns:dc="http://purl.org/dc/elements/1.1/" xmlns:inkscape="http://www.inkscape.org/namespaces/inkscape" inkscape:version="0.48.2 r9819" sodipodi:docname="Airdrop - Copie.svg"
	 xmlns="http://www.w3.org/2000/svg" xmlns:xlink="http://www.w3.org/1999/xlink" x="0px" y="0px" viewBox="0 0 602 602"
	 style="enable-background:new 0 0 602 602;" xml:space="preserve">
<style type="text/css">
	.st0{clip-path:url(#SVGID_00000094613062636459174840000000492023035665382546_);}
	.st1{fill:#0043FF;}
	.st2{fill:#F72F6D;}
	.st3{fill:#00FF30;}
	.st4{fill:#F46431;}
	.st5{fill:none;}
	.st6{fill:url(#SVGID_00000094612477582831257810000004305623781524204184_);}
</style>
<sodipodi:namedview  bordercolor="#666666" borderopacity="1.0" id="base" inkscape:current-layer="layer1" inkscape:cx="-298.61733" inkscape:cy="36.893627" inkscape:document-units="px" inkscape:pageopacity="0.0" inkscape:pageshadow="2" inkscape:window-height="706" inkscape:window-maximized="1" inkscape:window-width="1366" inkscape:window-x="-8" inkscape:window-y="-8" inkscape:zoom="0.37410882" pagecolor="#ffffff" showgrid="false">
	</sodipodi:namedview>
<g>
	<defs>
		<path id="SVGID_1_" d="M301,5C137.5,5,5,137.5,5,301s132.5,296,296,296s296-132.5,296-296S464.5,5,301,5z M301,580.7
			C146.5,580.7,21.3,455.5,21.3,301S146.5,21.3,301,21.3S580.7,146.5,580.7,301S455.5,580.7,301,580.7z"/>
	</defs>
	<clipPath id="SVGID_00000162352090692847544400000016490786337271753125_">
		<use xlink:href="#SVGID_1_"  style="overflow:visible;"/>
	</clipPath>
	<g style="clip-path:url(#SVGID_00000162352090692847544400000016490786337271753125_);">
		<g>
			<rect x="-7.8" y="-199.1" class="st1" width="617.7" height="4.7"/>
			<rect x="-7.8" y="-194.4" class="st2" width="617.7" height="4.7"/>
			<rect x="-7.8" y="-189.8" class="st3" width="617.7" height="4.7"/>
			<rect x="-7.8" y="-185.1" class="st4" width="617.7" height="4.7"/>
		</g>
		<g>
			<rect x="-7.8" y="-183.1" class="st1" width="617.7" height="4.7"/>
			<rect x="-7.8" y="-178.4" class="st2" width="617.7" height="4.7"/>
			<rect x="-7.8" y="-173.7" class="st3" width="617.7" height="4.7"/>
			<rect x="-7.8" y="-169" class="st4" width="617.7" height="4.7"/>
		</g>
		<g>
			<rect x="-7.8" y="-167" class="st1" width="617.7" height="4.7"/>
			<rect x="-7.8" y="-162.3" class="st2" width="617.7" height="4.7"/>
			<rect x="-7.8" y="-157.7" class="st3" width="617.7" height="4.7"/>
			<rect x="-7.8" y="-153" class="st4" width="617.7" height="4.7"/>
		</g>
		<g>
			<rect x="-7.8" y="-151" class="st1" width="617.7" height="4.7"/>
			<rect x="-7.8" y="-146.3" class="st2" width="617.7" height="4.7"/>
			<rect x="-7.8" y="-141.6" class="st3" width="617.7" height="4.7"/>
			<rect x="-7.8" y="-137" class="st4" width="617.7" height="4.7"/>
		</g>
		<g>
			<rect x="-7.8" y="-134.9" class="st1" width="617.7" height="4.7"/>
			<rect x="-7.8" y="-130.3" class="st2" width="617.7" height="4.7"/>
			<rect x="-7.8" y="-125.6" class="st3" width="617.7" height="4.7"/>
			<rect x="-7.8" y="-120.9" class="st4" width="617.7" height="4.7"/>
		</g>
		<g>
			<rect x="-7.8" y="-118.9" class="st1" width="617.7" height="4.7"/>
			<rect x="-7.8" y="-114.2" class="st2" width="617.7" height="4.7"/>
			<rect x="-7.8" y="-109.5" class="st3" width="617.7" height="4.7"/>
			<rect x="-7.8" y="-104.9" class="st4" width="617.7" height="4.7"/>
		</g>
		<g>
			<rect x="-7.8" y="-102.8" class="st1" width="617.7" height="4.7"/>
			<rect x="-7.8" y="-98.2" class="st2" width="617.7" height="4.7"/>
			<rect x="-7.8" y="-93.5" class="st3" width="617.7" height="4.7"/>
			<rect x="-7.8" y="-88.8" class="st4" width="617.7" height="4.7"/>
		</g>
		<g>
			<rect x="-7.8" y="-86.8" class="st1" width="617.7" height="4.7"/>
			<rect x="-7.8" y="-82.1" class="st2" width="617.7" height="4.7"/>
			<rect x="-7.8" y="-77.4" class="st3" width="617.7" height="4.7"/>
			<rect x="-7.8" y="-72.8" class="st4" width="617.7" height="4.7"/>
		</g>
		<g>
			<rect x="-7.8" y="-70.8" class="st1" width="617.7" height="4.7"/>
			<rect x="-7.8" y="-66.1" class="st2" width="617.7" height="4.7"/>
			<rect x="-7.8" y="-61.4" class="st3" width="617.7" height="4.7"/>
			<rect x="-7.8" y="-56.7" class="st4" width="617.7" height="4.7"/>
		</g>
		<g>
			<rect x="-7.8" y="-54.7" class="st1" width="617.7" height="4.7"/>
			<rect x="-7.8" y="-50" class="st2" width="617.7" height="4.7"/>
			<rect x="-7.8" y="-45.4" class="st3" width="617.7" height="4.7"/>
			<rect x="-7.8" y="-40.7" class="st4" width="617.7" height="4.7"/>
		</g>
		<g>
			<rect x="-7.8" y="-38.7" class="st1" width="617.7" height="4.7"/>
			<rect x="-7.8" y="-34" class="st2" width="617.7" height="4.7"/>
			<rect x="-7.8" y="-29.3" class="st3" width="617.7" height="4.7"/>
			<rect x="-7.8" y="-24.6" class="st4" width="617.7" height="4.7"/>
		</g>
		<g>
			<rect x="-7.8" y="-22.6" class="st1" width="617.7" height="4.7"/>
			<rect x="-7.8" y="-17.9" class="st2" width="617.7" height="4.7"/>
			<rect x="-7.8" y="-13.3" class="st3" width="617.7" height="4.7"/>
			<rect x="-7.8" y="-8.6" class="st4" width="617.7" height="4.7"/>
		</g>
		<g>
			<rect x="-7.8" y="-6.6" class="st1" width="617.7" height="4.7"/>
			<rect x="-7.8" y="-1.9" class="st2" width="617.7" height="4.7"/>
			<rect x="-7.8" y="2.8" class="st3" width="617.7" height="4.7"/>
			<rect x="-7.8" y="7.4" class="st4" width="617.7" height="4.7"/>
		</g>
		<g>
			<rect x="-7.8" y="9.5" class="st1" width="617.7" height="4.7"/>
			<rect x="-7.8" y="14.1" class="st2" width="617.7" height="4.7"/>
			<rect x="-7.8" y="18.8" class="st3" width="617.7" height="4.7"/>
			<rect x="-7.8" y="23.5" class="st4" width="617.7" height="4.7"/>
		</g>
		<g>
			<rect x="-7.8" y="25.5" class="st1" width="617.7" height="4.7"/>
			<rect x="-7.8" y="30.2" class="st2" width="617.7" height="4.7"/>
			<rect x="-7.8" y="34.9" class="st3" width="617.7" height="4.7"/>
			<rect x="-7.8" y="39.5" class="st4" width="617.7" height="4.7"/>
		</g>
		<g>
			<rect x="-7.8" y="41.6" class="st1" width="617.7" height="4.7"/>
			<rect x="-7.8" y="46.2" class="st2" width="617.7" height="4.7"/>
			<rect x="-7.8" y="50.9" class="st3" width="617.7" height="4.7"/>
			<rect x="-7.8" y="55.6" class="st4" width="617.7" height="4.7"/>
		</g>
		<g>
			<rect x="-7.8" y="57.6" class="st1" width="617.7" height="4.7"/>
			<rect x="-7.8" y="62.3" class="st2" width="617.7" height="4.7"/>
			<rect x="-7.8" y="67" class="st3" width="617.7" height="4.7"/>
			<rect x="-7.8" y="71.6" class="st4" width="617.7" height="4.7"/>
		</g>
		<g>
			<rect x="-7.8" y="73.6" class="st1" width="617.7" height="4.7"/>
			<rect x="-7.8" y="78.3" class="st2" width="617.7" height="4.7"/>
			<rect x="-7.8" y="83" class="st3" width="617.7" height="4.7"/>
			<rect x="-7.8" y="87.7" class="st4" width="617.7" height="4.7"/>
		</g>
		<g>
			<rect x="-7.8" y="89.7" class="st1" width="617.7" height="4.7"/>
			<rect x="-7.8" y="94.4" class="st2" width="617.7" height="4.7"/>
			<rect x="-7.8" y="99" class="st3" width="617.7" height="4.7"/>
			<rect x="-7.8" y="103.7" class="st4" width="617.7" height="4.7"/>
		</g>
		<g>
			<rect x="-7.8" y="105.7" class="st1" width="617.7" height="4.7"/>
			<rect x="-7.8" y="110.4" class="st2" width="617.7" height="4.7"/>
			<rect x="-7.8" y="115.1" class="st3" width="617.7" height="4.7"/>
			<rect x="-7.8" y="119.8" class="st4" width="617.7" height="4.7"/>
		</g>
		<g>
			<rect x="-7.8" y="121.8" class="st1" width="617.7" height="4.7"/>
			<rect x="-7.8" y="126.5" class="st2" width="617.7" height="4.7"/>
			<rect x="-7.8" y="131.1" class="st3" width="617.7" height="4.7"/>
			<rect x="-7.8" y="135.8" class="st4" width="617.7" height="4.7"/>
		</g>
		<g>
			<rect x="-7.8" y="137.8" class="st1" width="617.7" height="4.7"/>
			<rect x="-7.8" y="142.5" class="st2" width="617.7" height="4.7"/>
			<rect x="-7.8" y="147.2" class="st3" width="617.7" height="4.7"/>
			<rect x="-7.8" y="151.8" class="st4" width="617.7" height="4.7"/>
		</g>
		<g>
			<rect x="-7.8" y="153.9" class="st1" width="617.7" height="4.7"/>
			<rect x="-7.8" y="158.5" class="st2" width="617.7" height="4.7"/>
			<rect x="-7.8" y="163.2" class="st3" width="617.7" height="4.7"/>
			<rect x="-7.8" y="167.9" class="st4" width="617.7" height="4.7"/>
		</g>
		<g>
			<rect x="-7.8" y="169.9" class="st1" width="617.7" height="4.7"/>
			<rect x="-7.8" y="174.6" class="st2" width="617.7" height="4.7"/>
			<rect x="-7.8" y="179.3" class="st3" width="617.7" height="4.7"/>
			<rect x="-7.8" y="183.9" class="st4" width="617.7" height="4.7"/>
		</g>
		<g>
			<rect x="-7.8" y="186" class="st1" width="617.7" height="4.7"/>
			<rect x="-7.8" y="190.6" class="st2" width="617.7" height="4.7"/>
			<rect x="-7.8" y="195.3" class="st3" width="617.7" height="4.7"/>
			<rect x="-7.8" y="200" class="st4" width="617.7" height="4.7"/>
		</g>
		<g>
			<rect x="-7.8" y="202" class="st1" width="617.7" height="4.7"/>
			<rect x="-7.8" y="206.7" class="st2" width="617.7" height="4.7"/>
			<rect x="-7.8" y="211.4" class="st3" width="617.7" height="4.7"/>
			<rect x="-7.8" y="216" class="st4" width="617.7" height="4.7"/>
		</g>
		<g>
			<rect x="-7.8" y="218" class="st1" width="617.7" height="4.7"/>
			<rect x="-7.8" y="222.7" class="st2" width="617.7" height="4.7"/>
			<rect x="-7.8" y="227.4" class="st3" width="617.7" height="4.7"/>
			<rect x="-7.8" y="232.1" class="st4" width="617.7" height="4.7"/>
		</g>
		<g>
			<rect x="-7.8" y="234.1" class="st1" width="617.7" height="4.7"/>
			<rect x="-7.8" y="238.8" class="st2" width="617.7" height="4.7"/>
			<rect x="-7.8" y="243.4" class="st3" width="617.7" height="4.7"/>
			<rect x="-7.8" y="248.1" class="st4" width="617.7" height="4.7"/>
		</g>
		<g>
			<rect x="-7.8" y="250.1" class="st1" width="617.7" height="4.7"/>
			<rect x="-7.8" y="254.8" class="st2" width="617.7" height="4.7"/>
			<rect x="-7.8" y="259.5" class="st3" width="617.7" height="4.7"/>
			<rect x="-7.8" y="264.2" class="st4" width="617.7" height="4.7"/>
		</g>
		<g>
			<rect x="-7.8" y="266.2" class="st1" width="617.7" height="4.7"/>
			<rect x="-7.8" y="270.9" class="st2" width="617.7" height="4.7"/>
			<rect x="-7.8" y="275.5" class="st3" width="617.7" height="4.7"/>
			<rect x="-7.8" y="280.2" class="st4" width="617.7" height="4.7"/>
		</g>
		<g>
			<rect x="-7.8" y="282.2" class="st1" width="617.7" height="4.7"/>
			<rect x="-7.8" y="286.9" class="st2" width="617.7" height="4.7"/>
			<rect x="-7.8" y="291.6" class="st3" width="617.7" height="4.7"/>
			<rect x="-7.8" y="296.2" class="st4" width="617.7" height="4.7"/>
		</g>
		<g>
			<rect x="-7.8" y="298.3" class="st1" width="617.7" height="4.7"/>
			<rect x="-7.8" y="302.9" class="st2" width="617.7" height="4.7"/>
			<rect x="-7.8" y="307.6" class="st3" width="617.7" height="4.7"/>
			<rect x="-7.8" y="312.3" class="st4" width="617.7" height="4.7"/>
		</g>
		<g>
			<rect x="-7.8" y="314.3" class="st1" width="617.7" height="4.7"/>
			<rect x="-7.8" y="319" class="st2" width="617.7" height="4.7"/>
			<rect x="-7.8" y="323.7" class="st3" width="617.7" height="4.7"/>
			<rect x="-7.8" y="328.3" class="st4" width="617.7" height="4.7"/>
		</g>
		<g>
			<rect x="-7.8" y="330.4" class="st1" width="617.7" height="4.7"/>
			<rect x="-7.8" y="335" class="st2" width="617.7" height="4.7"/>
			<rect x="-7.8" y="339.7" class="st3" width="617.7" height="4.7"/>
			<rect x="-7.8" y="344.4" class="st4" width="617.7" height="4.7"/>
		</g>
		<g>
			<rect x="-7.8" y="346.4" class="st1" width="617.7" height="4.7"/>
			<rect x="-7.8" y="351.1" class="st2" width="617.7" height="4.7"/>
			<rect x="-7.8" y="355.8" class="st3" width="617.7" height="4.7"/>
			<rect x="-7.8" y="360.4" class="st4" width="617.7" height="4.7"/>
		</g>
		<g>
			<rect x="-7.8" y="362.4" class="st1" width="617.7" height="4.7"/>
			<rect x="-7.8" y="367.1" class="st2" width="617.7" height="4.7"/>
			<rect x="-7.8" y="371.8" class="st3" width="617.7" height="4.7"/>
			<rect x="-7.8" y="376.5" class="st4" width="617.7" height="4.7"/>
		</g>
		<g>
			<rect x="-7.8" y="378.5" class="st1" width="617.7" height="4.7"/>
			<rect x="-7.8" y="383.2" class="st2" width="617.7" height="4.7"/>
			<rect x="-7.8" y="387.8" class="st3" width="617.7" height="4.7"/>
			<rect x="-7.8" y="392.5" class="st4" width="617.7" height="4.7"/>
		</g>
		<g>
			<rect x="-7.8" y="394.5" class="st1" width="617.7" height="4.7"/>
			<rect x="-7.8" y="399.2" class="st2" width="617.7" height="4.7"/>
			<rect x="-7.8" y="403.9" class="st3" width="617.7" height="4.7"/>
			<rect x="-7.8" y="408.6" class="st4" width="617.7" height="4.7"/>
		</g>
		<g>
			<rect x="-7.8" y="410.6" class="st1" width="617.7" height="4.7"/>
			<rect x="-7.8" y="415.3" class="st2" width="617.7" height="4.7"/>
			<rect x="-7.8" y="419.9" class="st3" width="617.7" height="4.7"/>
			<rect x="-7.8" y="424.6" class="st4" width="617.7" height="4.7"/>
		</g>
		<g>
			<rect x="-7.8" y="426.6" class="st1" width="617.7" height="4.7"/>
			<rect x="-7.8" y="431.3" class="st2" width="617.7" height="4.7"/>
			<rect x="-7.8" y="436" class="st3" width="617.7" height="4.7"/>
			<rect x="-7.8" y="440.6" class="st4" width="617.7" height="4.7"/>
		</g>
		<g>
			<rect x="-7.8" y="442.7" class="st1" width="617.7" height="4.7"/>
			<rect x="-7.8" y="447.3" class="st2" width="617.7" height="4.7"/>
			<rect x="-7.8" y="452" class="st3" width="617.7" height="4.7"/>
			<rect x="-7.8" y="456.7" class="st4" width="617.7" height="4.7"/>
		</g>
		<g>
			<rect x="-7.8" y="458.7" class="st1" width="617.7" height="4.7"/>
			<rect x="-7.8" y="463.4" class="st2" width="617.7" height="4.7"/>
			<rect x="-7.8" y="468.1" class="st3" width="617.7" height="4.7"/>
			<rect x="-7.8" y="472.7" class="st4" width="617.7" height="4.7"/>
		</g>
		<g>
			<rect x="-7.8" y="474.8" class="st1" width="617.7" height="4.7"/>
			<rect x="-7.8" y="479.4" class="st2" width="617.7" height="4.7"/>
			<rect x="-7.8" y="484.1" class="st3" width="617.7" height="4.7"/>
			<rect x="-7.8" y="488.8" class="st4" width="617.7" height="4.7"/>
		</g>
		<g>
			<rect x="-7.8" y="490.8" class="st1" width="617.7" height="4.7"/>
			<rect x="-7.8" y="495.5" class="st2" width="617.7" height="4.7"/>
			<rect x="-7.8" y="500.2" class="st3" width="617.7" height="4.7"/>
			<rect x="-7.8" y="504.8" class="st4" width="617.7" height="4.7"/>
		</g>
		<g>
			<rect x="-7.8" y="506.8" class="st1" width="617.7" height="4.7"/>
			<rect x="-7.8" y="511.5" class="st2" width="617.7" height="4.7"/>
			<rect x="-7.8" y="516.2" class="st3" width="617.7" height="4.7"/>
			<rect x="-7.8" y="520.9" class="st4" width="617.7" height="4.7"/>
		</g>
		<g>
			<rect x="-7.8" y="522.9" class="st1" width="617.7" height="4.7"/>
			<rect x="-7.8" y="527.6" class="st2" width="617.7" height="4.7"/>
			<rect x="-7.8" y="532.2" class="st3" width="617.7" height="4.7"/>
			<rect x="-7.8" y="536.9" class="st4" width="617.7" height="4.7"/>
		</g>
		<g>
			<rect x="-7.8" y="538.9" class="st1" width="617.7" height="4.7"/>
			<rect x="-7.8" y="543.6" class="st2" width="617.7" height="4.7"/>
			<rect x="-7.8" y="548.3" class="st3" width="617.7" height="4.7"/>
			<rect x="-7.8" y="553" class="st4" width="617.7" height="4.7"/>
		</g>
		<g>
			<rect x="-7.8" y="555" class="st1" width="617.7" height="4.7"/>
			<rect x="-7.8" y="559.7" class="st2" width="617.7" height="4.7"/>
			<rect x="-7.8" y="564.3" class="st3" width="617.7" height="4.7"/>
			<rect x="-7.8" y="569" class="st4" width="617.7" height="4.7"/>
		</g>
		<g>
			<rect x="-7.8" y="571" class="st1" width="617.7" height="4.7"/>
			<rect x="-7.8" y="575.7" class="st2" width="617.7" height="4.7"/>
			<rect x="-7.8" y="580.4" class="st3" width="617.7" height="4.7"/>
			<rect x="-7.8" y="585" class="st4" width="617.7" height="4.7"/>
		</g>
		<g>
			<rect x="-7.8" y="587.1" class="st1" width="617.7" height="4.7"/>
			<rect x="-7.8" y="591.7" class="st2" width="617.7" height="4.7"/>
			<rect x="-7.8" y="596.4" class="st3" width="617.7" height="4.7"/>
			<rect x="-7.8" y="601.1" class="st4" width="617.7" height="4.7"/>
		</g>
		<g>
			<rect x="-7.8" y="603.1" class="st1" width="617.7" height="4.7"/>
			<rect x="-7.8" y="607.8" class="st2" width="617.7" height="4.7"/>
			<rect x="-7.8" y="612.5" class="st3" width="617.7" height="4.7"/>
			<rect x="-7.8" y="617.1" class="st4" width="617.7" height="4.7"/>
		</g>
		<g>
			<rect x="-7.8" y="619.2" class="st1" width="617.7" height="4.7"/>
			<rect x="-7.8" y="623.8" class="st2" width="617.7" height="4.7"/>
			<rect x="-7.8" y="628.5" class="st3" width="617.7" height="4.7"/>
			<rect x="-7.8" y="633.2" class="st4" width="617.7" height="4.7"/>
		</g>
		<g>
			<rect x="-7.8" y="635.2" class="st1" width="617.7" height="4.7"/>
			<rect x="-7.8" y="639.9" class="st2" width="617.7" height="4.7"/>
			<rect x="-7.8" y="644.5" class="st3" width="617.7" height="4.7"/>
			<rect x="-7.8" y="649.2" class="st4" width="617.7" height="4.7"/>
		</g>
		<g>
			<rect x="-7.8" y="651.2" class="st1" width="617.7" height="4.7"/>
			<rect x="-7.8" y="655.9" class="st2" width="617.7" height="4.7"/>
			<rect x="-7.8" y="660.6" class="st3" width="617.7" height="4.7"/>
			<rect x="-7.8" y="665.3" class="st4" width="617.7" height="4.7"/>
		</g>
		<g>
			<rect x="-7.8" y="667.3" class="st1" width="617.7" height="4.7"/>
			<rect x="-7.8" y="672" class="st2" width="617.7" height="4.7"/>
			<rect x="-7.8" y="676.6" class="st3" width="617.7" height="4.7"/>
			<rect x="-7.8" y="681.3" class="st4" width="617.7" height="4.7"/>
		</g>
		<g>
			<rect x="-7.8" y="683.3" class="st1" width="617.7" height="4.7"/>
			<rect x="-7.8" y="688" class="st2" width="617.7" height="4.7"/>
			<rect x="-7.8" y="692.7" class="st3" width="617.7" height="4.7"/>
			<rect x="-7.8" y="697.4" class="st4" width="617.7" height="4.7"/>
		</g>
		<g>
			<rect x="-7.8" y="699.4" class="st1" width="617.7" height="4.7"/>
			<rect x="-7.8" y="704.1" class="st2" width="617.7" height="4.7"/>
			<rect x="-7.8" y="708.7" class="st3" width="617.7" height="4.7"/>
			<rect x="-7.8" y="713.4" class="st4" width="617.7" height="4.7"/>
		</g>
		<g>
			<rect x="-7.8" y="715.4" class="st1" width="617.7" height="4.7"/>
			<rect x="-7.8" y="720.1" class="st2" width="617.7" height="4.7"/>
			<rect x="-7.8" y="724.8" class="st3" width="617.7" height="4.7"/>
			<rect x="-7.8" y="729.4" class="st4" width="617.7" height="4.7"/>
		</g>
		<g>
			<rect x="-7.8" y="731.5" class="st1" width="617.7" height="4.7"/>
			<rect x="-7.8" y="736.1" class="st2" width="617.7" height="4.7"/>
			<rect x="-7.8" y="740.8" class="st3" width="617.7" height="4.7"/>
			<rect x="-7.8" y="745.5" class="st4" width="617.7" height="4.7"/>
		</g>
		<g>
			<rect x="-7.8" y="747.5" class="st1" width="617.7" height="4.7"/>
			<rect x="-7.8" y="752.2" class="st2" width="617.7" height="4.7"/>
			<rect x="-7.8" y="756.9" class="st3" width="617.7" height="4.7"/>
			<rect x="-7.8" y="761.5" class="st4" width="617.7" height="4.7"/>
		</g>
		<g>
			<rect x="-7.8" y="763.6" class="st1" width="617.7" height="4.7"/>
			<rect x="-7.8" y="768.2" class="st2" width="617.7" height="4.7"/>
			<rect x="-7.8" y="772.9" class="st3" width="617.7" height="4.7"/>
			<rect x="-7.8" y="777.6" class="st4" width="617.7" height="4.7"/>
		</g>
		<g>
			<rect x="-7.8" y="779.6" class="st1" width="617.7" height="4.7"/>
			<rect x="-7.8" y="784.3" class="st2" width="617.7" height="4.7"/>
			<rect x="-7.8" y="788.9" class="st3" width="617.7" height="4.7"/>
			<rect x="-7.8" y="793.6" class="st4" width="617.7" height="4.7"/>
		</g>
		<g>
			<rect x="-7.8" y="795.6" class="st1" width="617.7" height="4.7"/>
			<rect x="-7.8" y="800.3" class="st2" width="617.7" height="4.7"/>
			<rect x="-7.8" y="805" class="st3" width="617.7" height="4.7"/>
			<rect x="-7.8" y="809.7" class="st4" width="617.7" height="4.7"/>
		</g>
		<g>
			<rect x="-7.8" y="811.7" class="st1" width="617.7" height="4.7"/>
			<rect x="-7.8" y="816.4" class="st2" width="617.7" height="4.7"/>
			<rect x="-7.8" y="821" class="st3" width="617.7" height="4.7"/>
			<rect x="-7.8" y="825.7" class="st4" width="617.7" height="4.7"/>
		</g>
		<g>
			<rect x="-7.8" y="827.7" class="st1" width="617.7" height="4.7"/>
			<rect x="-7.8" y="832.4" class="st2" width="617.7" height="4.7"/>
			<rect x="-7.8" y="837.1" class="st3" width="617.7" height="4.7"/>
			<rect x="-7.8" y="841.8" class="st4" width="617.7" height="4.7"/>
		</g>
	</g>
</g>
<path class="st5" d="M301,5C137.5,5,5,137.5,5,301s132.5,296,296,296s296-132.5,296-296S464.5,5,301,5z M301,580.7
	C146.5,580.7,21.3,455.5,21.3,301S146.5,21.3,301,21.3S580.7,146.5,580.7,301S455.5,580.7,301,580.7z"/>
<linearGradient id="SVGID_00000132077379380957443040000012882108169973667220_" gradientUnits="userSpaceOnUse" x1="5" y1="301" x2="597" y2="301">
	<stop  offset="5.072649e-04" style="stop-color:#70EFFF;stop-opacity:0.1"/>
	<stop  offset="1" style="stop-color:#5770FF"/>
</linearGradient>
<path style="fill:url(#SVGID_00000132077379380957443040000012882108169973667220_);" d="M301,5C137.5,5,5,137.5,5,301
	s132.5,296,296,296s296-132.5,296-296S464.5,5,301,5z M301,580.7C146.5,580.7,21.3,455.5,21.3,301S146.5,21.3,301,21.3
	S580.7,146.5,580.7,301S455.5,580.7,301,580.7z"/>
</svg>
